<?xml version="1.0" standalone="no"?>
<!DOCTYPE svg PUBLIC "-//W3C//DTD SVG 20010904//EN"
 "http://www.w3.org/TR/2001/REC-SVG-20010904/DTD/svg10.dtd">
<svg version="1.0" xmlns="http://www.w3.org/2000/svg"
 width="1150.000000pt" height="1150.000000pt" viewBox="0 0 1150.000000 1150.000000"
 preserveAspectRatio="xMidYMid meet">
<metadata>
Created by potrace 1.11, written by Peter Selinger 2001-2013
</metadata>
<g transform="translate(0.000000,1150.000000) scale(0.100000,-0.100000)"
fill="#000000" stroke="none">
<path d="M5150 10880 c-9 -6 -10 -10 -3 -10 6 0 15 5 18 10 8 12 4 12 -15 0z"/>
<path d="M5195 10870 c-3 -6 1 -7 9 -4 18 7 21 14 7 14 -6 0 -13 -4 -16 -10z"/>
<path d="M5308 10873 c6 -2 18 -2 25 0 6 3 1 5 -13 5 -14 0 -19 -2 -12 -5z"/>
<path d="M5095 10854 c4 -16 0 -23 -14 -27 -11 -3 -22 0 -25 7 -2 6 -5 4 -5
-5 -1 -15 -6 -17 -51 -21 -11 -1 -20 -6 -20 -10 0 -4 -9 -5 -20 -3 -11 2 -20
0 -20 -5 0 -4 -8 -7 -17 -6 -18 3 -27 0 -70 -22 -18 -9 -24 -8 -35 10 -14 21
-38 18 -38 -5 0 -7 4 -6 10 3 9 13 11 13 19 0 12 -18 3 -33 -15 -26 -8 3 -14
2 -14 -2 0 -4 -9 -13 -21 -20 -17 -11 -20 -11 -14 0 4 7 -2 2 -13 -11 -12 -15
-24 -21 -32 -16 -8 5 -11 4 -6 -3 10 -16 -51 -58 -119 -80 -33 -11 -82 -31
-110 -43 -27 -12 -53 -23 -56 -23 -8 -1 -172 -109 -190 -126 -9 -8 -31 -26
-49 -40 -19 -14 -40 -31 -47 -38 -11 -11 -17 -11 -28 -2 -8 7 -15 9 -15 4 0
-5 -5 -2 -11 6 -9 13 -10 13 -6 0 2 -8 9 -16 15 -16 23 -3 24 -4 12 -19 -8 -9
-21 -13 -34 -10 -16 5 -18 4 -6 -4 13 -9 11 -13 -8 -31 -19 -18 -26 -19 -38
-9 -8 6 -17 9 -21 5 -3 -3 -1 -6 4 -6 6 0 10 -8 8 -17 -2 -10 -4 -21 -4 -25
-1 -5 -10 -8 -21 -8 -11 0 -19 -6 -17 -12 1 -7 -4 -12 -10 -11 -7 2 -13 -2
-13 -9 0 -6 -10 -27 -22 -45 -16 -23 -28 -31 -40 -27 -10 3 -18 1 -18 -5 0 -6
3 -10 8 -8 15 5 11 -14 -14 -69 -20 -43 -28 -54 -36 -43 -7 10 -8 8 -3 -9 4
-15 1 -24 -10 -28 -10 -4 -12 -9 -6 -13 6 -4 6 -12 2 -20 -5 -7 -14 -10 -20
-7 -6 4 -9 12 -6 17 4 5 2 9 -3 9 -6 0 -9 -11 -8 -24 0 -14 6 -22 14 -19 6 3
12 0 12 -6 0 -6 -4 -11 -10 -11 -5 0 -10 -7 -10 -16 0 -9 -5 -12 -12 -8 -8 5
-9 2 -5 -10 4 -9 3 -15 -2 -12 -5 3 -11 -8 -15 -25 -5 -27 -8 -30 -21 -19 -13
11 -14 10 -9 -3 3 -9 -3 -24 -15 -36 -12 -12 -21 -18 -21 -15 0 10 -80 -79
-98 -109 -9 -15 -22 -25 -29 -23 -7 3 -15 0 -19 -6 -4 -7 -3 -8 4 -4 7 4 12 4
12 -1 0 -9 -61 -39 -73 -35 -5 1 -6 -2 -2 -8 3 -5 13 -10 20 -10 14 0 25 -29
23 -63 -1 -12 -7 -16 -19 -12 -20 7 -35 -10 -18 -21 8 -4 9 -3 5 4 -4 7 -3 12
3 12 16 0 24 -22 11 -30 -7 -5 -8 -9 -2 -11 17 -6 2 -59 -17 -59 -9 0 -12 -3
-6 -8 13 -9 18 -32 7 -32 -4 0 -8 -9 -9 -21 -3 -41 -24 -89 -36 -82 -9 5 -9 3
-1 -8 8 -9 9 -22 3 -37 -7 -18 -14 -22 -31 -18 l-23 6 23 -11 c24 -13 28 -24
12 -34 -6 -4 -7 -11 -4 -17 5 -8 1 -9 -11 -4 -15 6 -16 4 -5 -10 11 -12 11
-17 1 -23 -7 -5 -12 -11 -11 -15 1 -4 -8 -27 -20 -51 -17 -35 -20 -55 -15 -88
4 -23 7 -55 7 -70 1 -20 3 -24 9 -15 8 12 13 4 10 -14 0 -5 4 -8 10 -8 5 0 7
-4 4 -10 -3 -5 -1 -10 6 -10 7 0 10 -3 7 -6 -4 -3 5 -22 18 -41 13 -20 24 -42
24 -49 0 -8 5 -14 11 -14 6 0 9 -6 6 -14 -3 -7 0 -19 6 -25 8 -8 6 -11 -8 -11
-14 0 -16 -3 -7 -8 15 -10 13 -72 -3 -72 -5 0 -4 -4 3 -9 11 -7 11 -9 -2 -14
-9 -4 -16 -12 -16 -19 0 -10 2 -10 9 0 7 11 9 11 14 0 3 -8 -4 -20 -16 -27
-20 -13 -20 -14 -3 -27 17 -12 14 -40 -3 -30 -4 3 -8 -1 -8 -9 0 -11 4 -12 13
-4 9 7 12 4 10 -15 0 -13 -5 -21 -11 -18 -5 3 -4 -2 4 -11 9 -11 10 -17 2 -17
-6 0 -11 -5 -11 -11 0 -5 4 -8 8 -5 4 2 7 -22 7 -55 0 -37 -6 -63 -13 -68 -10
-6 -10 -10 2 -20 7 -6 14 -27 13 -46 -1 -29 -3 -32 -16 -22 -11 9 -10 5 3 -14
18 -28 19 -89 1 -89 -5 0 -3 -5 5 -10 13 -9 13 -11 0 -20 -13 -8 -12 -10 5
-11 12 0 15 -3 7 -6 -10 -4 -9 -10 5 -26 10 -11 13 -17 7 -14 -7 4 -14 0 -18
-8 -3 -8 0 -15 7 -15 8 0 6 -4 -3 -10 -13 -9 -13 -10 0 -10 12 0 13 -2 1 -9
-11 -7 -11 -9 0 -14 11 -4 11 -6 0 -6 -11 -1 -10 -5 5 -16 19 -15 19 -15 -1
-8 -17 6 -18 5 -7 -9 8 -10 9 -17 2 -20 -7 -2 -7 -14 -1 -35 6 -19 6 -35 1
-38 -5 -3 -6 -13 -3 -22 4 -11 3 -14 -6 -9 -10 7 -10 4 0 -12 7 -10 9 -28 5
-38 -4 -10 -9 -55 -11 -100 -5 -87 -17 -134 -36 -134 -7 0 -9 -3 -6 -7 10 -9
-13 -34 -25 -27 -5 3 -8 0 -7 -7 3 -19 -12 -51 -30 -67 -9 -8 -11 -11 -4 -7 9
4 9 -3 -2 -27 -8 -20 -20 -32 -30 -32 -9 1 -14 0 -11 -4 3 -3 -2 -11 -12 -19
-15 -13 -15 -13 5 -4 31 15 32 14 26 -16 -3 -16 -7 -39 -8 -53 -2 -14 -4 -27
-5 -30 -1 -3 -2 -8 -1 -12 0 -5 -5 -8 -12 -8 -8 0 -7 -4 3 -10 13 -9 13 -11 0
-20 -8 -5 -10 -10 -4 -10 6 0 11 -14 12 -32 1 -23 -2 -28 -8 -18 -7 11 -10 11
-10 2 0 -7 6 -15 13 -18 17 -6 21 -65 5 -76 -10 -6 -8 -8 5 -8 9 0 17 -4 17
-9 0 -5 -10 -7 -22 -5 l-23 5 23 -10 c12 -6 22 -17 22 -25 0 -8 3 -22 7 -32 5
-13 3 -15 -8 -9 -12 8 -12 6 -1 -8 8 -9 10 -22 6 -28 -4 -8 -3 -9 4 -5 7 4 13
0 14 -11 2 -33 3 -38 11 -50 5 -7 6 -13 3 -13 -3 0 1 -17 8 -37 7 -21 11 -44
8 -52 -3 -8 0 -11 7 -7 10 6 15 -6 12 -26 0 -5 4 -8 10 -8 6 0 9 -9 6 -20 -3
-10 0 -18 5 -17 13 3 40 -73 33 -91 -2 -7 -1 -11 4 -8 5 3 16 -22 25 -57 10
-34 21 -73 26 -87 6 -14 11 -34 13 -45 4 -20 15 -51 25 -69 3 -5 0 -6 -6 -2
-7 4 -12 3 -12 -2 0 -6 7 -13 16 -16 9 -4 14 -9 11 -13 -4 -3 -2 -12 4 -20 9
-10 7 -13 -7 -14 -16 0 -16 -2 4 -9 23 -10 30 -34 12 -45 -13 -8 -3 -25 13
-25 8 0 8 3 -2 9 -9 6 -10 11 -2 15 8 5 41 -51 41 -71 0 -2 7 -11 15 -19 21
-21 19 -34 -5 -29 -11 2 -23 -1 -26 -7 -4 -7 -2 -8 4 -4 7 4 12 1 12 -6 0 -8
3 -9 8 -3 23 32 60 -19 98 -135 15 -49 68 -127 83 -124 10 2 51 -19 51 -26 0
-4 12 -12 26 -19 16 -7 24 -17 20 -26 -3 -8 0 -17 6 -21 7 -4 8 -3 4 4 -4 7
-2 12 4 12 7 0 14 -9 17 -20 3 -11 9 -20 13 -20 11 0 41 -80 35 -91 -4 -5 -1
-9 5 -9 6 0 10 -8 9 -17 -1 -10 1 -36 6 -58 5 -22 9 -47 10 -55 0 -9 4 -20 7
-26 9 -13 5 -33 -10 -61 -7 -13 -9 -23 -4 -23 13 0 14 -71 0 -89 -12 -15 -11
-15 6 -1 18 14 19 13 13 -4 -5 -12 -3 -22 5 -27 10 -7 11 -12 1 -28 -10 -16
-10 -22 1 -28 8 -4 16 -19 18 -33 2 -14 7 -30 11 -37 4 -6 1 -14 -5 -16 -10
-4 -10 -6 0 -6 6 -1 12 -6 12 -12 0 -5 -4 -7 -10 -4 -5 3 -10 4 -10 1 0 -3 8
-10 18 -15 16 -8 17 -5 15 27 -2 34 -1 33 12 -12 7 -28 12 -53 9 -58 -3 -4 0
-8 7 -8 7 0 9 -10 7 -25 -3 -14 -1 -23 5 -22 6 1 11 -11 11 -28 1 -16 7 -36
14 -44 11 -12 11 -15 0 -22 -10 -7 -9 -9 4 -9 11 0 16 -6 13 -20 -2 -11 -1
-20 3 -20 8 0 29 -47 34 -75 2 -11 11 -29 21 -39 9 -11 17 -25 17 -30 0 -6 -5
-4 -10 4 -5 8 -10 10 -10 4 0 -6 10 -19 23 -28 12 -9 16 -14 9 -10 -8 3 3 -17
23 -45 21 -29 33 -56 29 -62 -4 -8 -3 -9 4 -5 6 4 19 -6 29 -21 10 -15 23 -34
30 -41 7 -7 13 -19 13 -27 0 -7 5 -15 11 -17 6 -2 12 -16 12 -31 1 -15 5 -27
10 -27 4 0 7 -8 7 -18 0 -10 3 -22 7 -26 8 -7 11 -21 18 -86 3 -25 7 -60 9
-77 2 -20 -1 -33 -8 -33 -6 0 -5 -4 3 -9 9 -6 10 -11 2 -15 -6 -4 -11 -13 -11
-19 0 -7 4 -6 10 3 8 12 10 11 10 -6 0 -11 -6 -26 -12 -33 -10 -11 -10 -13 0
-7 8 5 12 0 12 -14 0 -14 -4 -19 -12 -14 -8 5 -7 0 2 -11 14 -17 13 -18 -5
-12 -19 7 -19 6 -2 -7 17 -13 25 -62 8 -52 -10 7 -9 -20 2 -30 4 -4 1 -14 -6
-22 -9 -13 -9 -14 1 -8 6 4 12 3 12 -1 0 -5 -6 -15 -12 -22 -11 -11 -10 -13 0
-7 14 8 12 -19 -2 -43 -6 -10 -5 -12 2 -7 16 10 15 -7 0 -23 -10 -11 -10 -13
0 -7 8 5 12 0 12 -14 0 -14 -4 -19 -12 -14 -7 4 -4 -2 6 -14 11 -12 14 -22 8
-22 -7 0 -12 -5 -12 -11 0 -5 4 -8 9 -5 5 3 7 -16 5 -44 -1 -27 -4 -90 -6
-139 -2 -73 -6 -91 -18 -91 -10 0 -11 -3 -3 -8 7 -5 10 -29 7 -72 -2 -36 -5
-84 -5 -107 -1 -33 -5 -43 -18 -43 -14 -1 -14 -2 2 -11 9 -6 15 -14 12 -18 -2
-5 -8 -40 -11 -77 -4 -38 -11 -72 -18 -76 -8 -6 -8 -8 1 -8 6 0 9 -9 6 -20 -3
-11 -10 -17 -17 -13 -6 4 -4 -2 4 -12 14 -17 13 -18 -2 -12 -10 3 -20 2 -23
-4 -4 -5 -3 -9 2 -8 19 3 33 -2 33 -12 0 -6 -10 -8 -22 -5 -13 3 -17 3 -10 0
6 -3 9 -11 6 -16 -4 -7 -2 -8 5 -4 9 6 11 0 7 -21 -2 -15 -5 -30 -6 -33 -1 -3
-2 -17 -2 -32 -1 -16 -5 -28 -11 -28 -6 0 -7 -3 -4 -7 4 -3 1 -13 -6 -21 -6
-9 -7 -13 -1 -9 7 4 7 -9 0 -44 -9 -43 -13 -50 -31 -45 -17 4 -18 3 -4 -7 17
-12 16 -38 -1 -92 -11 -34 -58 -91 -71 -88 -4 2 -5 -5 -2 -14 4 -11 3 -14 -5
-9 -8 5 -12 -1 -12 -15 0 -12 -3 -19 -6 -16 -4 4 -18 -6 -30 -21 -13 -15 -24
-23 -24 -18 0 5 -9 -3 -21 -18 -11 -14 -28 -25 -37 -24 -9 2 -17 -3 -18 -9 -1
-7 -2 -17 -3 -22 0 -5 -8 -12 -17 -15 -15 -6 -15 -4 -3 11 13 16 12 17 -3 4
-10 -7 -18 -20 -18 -28 0 -8 -4 -12 -9 -9 -5 3 -12 -1 -15 -10 -3 -9 -11 -12
-18 -8 -7 4 -10 3 -5 -1 8 -9 -30 -55 -45 -55 -5 0 -16 -7 -24 -15 -21 -20
-35 -19 -27 3 3 9 -6 2 -20 -17 -14 -18 -38 -39 -53 -47 -34 -18 -44 -17 -20
1 11 8 15 15 8 15 -6 0 -19 -11 -28 -25 -13 -20 -20 -23 -34 -15 -28 15 -36
12 -14 -5 18 -13 18 -14 1 -15 -10 0 -31 -7 -47 -15 -22 -11 -30 -12 -33 -2
-3 6 -6 4 -6 -7 -1 -15 -4 -16 -16 -6 -13 11 -14 10 -9 -6 4 -10 4 -16 -1 -12
-4 4 -15 2 -23 -5 -13 -10 -15 -9 -8 3 4 9 2 8 -7 -2 -8 -10 -17 -15 -20 -11
-4 3 -7 1 -7 -5 0 -7 -7 -12 -16 -12 -9 0 -12 5 -8 13 4 7 3 9 -2 4 -5 -5 -9
-14 -9 -20 0 -7 -8 -11 -18 -11 -9 1 -17 -2 -17 -8 0 -5 -4 -7 -9 -4 -5 3 -12
-1 -15 -10 -4 -9 -9 -14 -12 -11 -3 3 -14 -3 -25 -14 -21 -21 -44 -26 -33 -6
4 7 3 9 -2 4 -5 -5 -9 -14 -9 -20 0 -7 -12 -11 -25 -9 -20 2 -22 0 -10 -8 14
-9 7 -14 -13 -11 -4 1 -10 -6 -13 -14 -4 -8 -10 -15 -16 -15 -5 0 -7 4 -4 8 3
5 -1 9 -8 9 -8 0 -12 -6 -10 -12 3 -7 -18 -23 -47 -38 -49 -24 -54 -25 -66 -9
-13 15 -13 15 -4 -5 7 -14 8 -24 1 -28 -5 -3 -10 -2 -10 3 0 6 -7 13 -16 16
-14 5 -15 4 -5 -8 10 -12 -3 -24 -74 -72 -47 -31 -85 -61 -85 -67 0 -5 -7 -7
-15 -3 -9 3 -15 0 -15 -9 0 -11 -98 -66 -120 -67 -3 0 -14 -7 -25 -14 -25 -18
-40 -18 -29 -1 5 7 2 6 -6 -3 -18 -17 -56 -40 -67 -40 -5 0 -1 5 7 10 12 7 10
9 -7 8 -12 -1 -19 -7 -16 -15 6 -16 -2 -16 -28 -3 -13 7 -19 7 -19 0 0 -5 5
-10 11 -10 5 0 8 -4 4 -10 -3 -5 -12 -7 -20 -3 -8 3 -15 0 -15 -7 0 -7 -7 -10
-15 -7 -8 4 -17 1 -21 -5 -5 -7 -2 -8 6 -3 9 5 11 4 6 -3 -4 -7 -14 -12 -22
-12 -8 0 -14 -5 -14 -11 0 -5 -4 -8 -9 -5 -5 3 -12 -1 -15 -10 -4 -9 -13 -14
-22 -10 -8 3 -13 2 -10 -2 9 -15 -24 -52 -39 -46 -8 4 -12 11 -8 17 4 6 1 7
-6 3 -9 -6 -8 -13 6 -29 17 -20 17 -21 0 -8 -15 12 -21 11 -41 -8 -12 -11 -26
-18 -29 -14 -4 3 -7 1 -7 -5 0 -6 -13 -18 -30 -27 -16 -9 -30 -13 -30 -10 0 4
-7 0 -15 -8 -8 -8 -65 -32 -127 -52 -62 -21 -136 -48 -165 -60 -28 -13 -54
-21 -57 -17 -3 3 -6 1 -6 -5 0 -15 -58 -37 -89 -35 -15 1 -21 -1 -14 -6 8 -5
0 -11 -22 -18 -19 -6 -32 -7 -29 -2 3 4 1 8 -5 8 -5 0 -11 -4 -13 -9 -1 -4
-13 -11 -25 -15 -18 -6 -20 -3 -16 12 3 12 -2 22 -13 26 -13 5 -15 4 -5 -8 15
-18 4 -46 -19 -46 -10 0 -37 -9 -61 -20 -47 -21 -74 -26 -65 -11 3 5 -2 15
-12 22 -15 12 -16 12 -6 -1 19 -27 10 -43 -31 -56 -22 -8 -48 -18 -58 -24 -10
-6 -22 -8 -28 -5 -5 4 -8 1 -7 -6 2 -6 -2 -13 -9 -16 -8 -3 -11 3 -8 17 2 11
0 18 -5 15 -5 -3 -7 -14 -5 -25 2 -13 -4 -24 -17 -31 -20 -11 -38 -27 -140
-126 -29 -28 -51 -42 -59 -37 -8 5 -10 3 -5 -5 5 -7 0 -21 -10 -32 -18 -21
-40 -26 -28 -7 4 7 3 8 -4 4 -6 -4 -9 -13 -6 -21 3 -8 -4 -19 -18 -26 -13 -6
-27 -18 -31 -25 -4 -8 -14 -14 -21 -14 -8 0 -17 -7 -20 -16 -3 -8 -11 -12 -16
-9 -6 4 -9 2 -8 -4 4 -12 -76 -88 -102 -96 -11 -4 -20 -10 -20 -15 0 -5 -17
-19 -37 -31 -21 -13 -55 -43 -77 -66 -21 -23 -43 -40 -47 -37 -5 3 -6 -2 -3
-10 3 -9 2 -16 -4 -16 -6 0 -12 6 -14 12 -3 7 -7 3 -10 -9 -4 -15 -2 -20 7
-16 21 7 6 -36 -16 -48 -11 -5 -19 -15 -18 -22 0 -9 2 -9 6 1 7 19 19 14 20
-8 1 -11 -2 -18 -6 -16 -4 3 -8 -1 -8 -9 0 -8 4 -12 9 -9 4 3 8 2 8 -3 0 -10
2401 -10 2418 0 6 5 12 5 12 0 0 -4 1802 -8 4005 -8 2203 0 4005 3 4005 7 0 4
7 14 16 22 8 9 11 16 5 16 -6 0 -11 9 -11 21 0 34 -47 84 -136 145 -46 31 -84
61 -84 66 0 4 -3 7 -7 6 -10 -2 -46 13 -53 22 -3 4 -27 20 -55 35 -27 16 -52
32 -55 35 -3 4 -12 9 -20 13 -43 19 -115 67 -113 76 2 6 -3 8 -10 5 -20 -7
-336 204 -397 266 -8 8 -31 27 -50 41 -71 54 -93 77 -85 89 6 9 4 11 -4 6 -8
-5 -28 8 -55 36 -134 135 -283 257 -367 301 -27 13 -45 28 -41 32 4 5 1 5 -6
1 -13 -8 -162 62 -162 76 0 4 -3 7 -7 6 -12 -4 -144 88 -138 95 3 4 2 5 -1 2
-9 -6 -94 56 -94 68 0 6 -3 7 -7 4 -3 -4 -20 8 -37 26 -17 17 -32 30 -34 28
-2 -1 -15 7 -29 19 -30 26 -121 84 -146 93 -11 4 -15 12 -11 19 4 7 3 10 -1 6
-9 -8 -94 37 -107 56 -4 6 -8 7 -8 2 0 -5 -8 -3 -17 6 -10 8 -29 20 -43 26
-14 7 -43 23 -65 37 -22 14 -46 28 -52 31 -7 3 -11 9 -8 13 2 4 -1 8 -8 8 -17
0 -67 33 -67 44 0 5 -4 8 -8 7 -9 -3 -50 26 -101 69 -14 13 -30 23 -35 23 -4
0 -5 7 -2 16 3 9 2 12 -5 9 -13 -8 -80 65 -72 78 3 6 1 7 -6 3 -6 -4 -23 1
-39 11 -31 21 -79 39 -135 49 -20 3 -40 10 -43 15 -3 5 -10 7 -15 3 -16 -10
-122 33 -114 46 3 4 -3 7 -13 6 -9 0 -16 5 -14 12 1 6 -1 11 -5 10 -11 -3
-103 64 -103 74 0 4 -5 8 -10 8 -15 0 -76 61 -72 72 1 5 -2 7 -7 4 -11 -7 -82
84 -75 96 3 4 0 7 -6 6 -7 -2 -20 12 -30 30 -10 19 -25 41 -34 51 -18 20 -22
46 -4 35 7 -4 8 -3 4 5 -4 6 -11 9 -16 6 -11 -7 -111 175 -103 188 3 6 1 7 -5
3 -7 -4 -12 -2 -12 3 0 6 -13 30 -30 53 -16 22 -30 47 -30 55 0 7 -4 13 -8 13
-13 0 -40 52 -45 87 -3 21 -1 33 6 33 8 0 7 3 -1 9 -8 4 -13 19 -12 32 1 13 1
26 0 29 -1 3 -4 28 -6 55 -2 28 -6 58 -8 68 -2 9 -1 15 4 12 7 -4 6 16 -5 69
-3 15 -1 34 5 41 7 9 8 15 1 20 -6 3 -10 37 -10 75 1 50 4 68 12 63 7 -4 6 1
-2 11 -13 15 -13 19 0 27 8 5 9 9 3 9 -12 0 -11 66 1 305 4 72 7 137 8 145 0
8 5 18 11 22 8 6 8 8 0 8 -6 0 -10 12 -8 28 6 40 14 168 15 240 0 34 4 60 8
58 4 -3 8 1 8 9 0 8 -4 12 -9 9 -5 -3 -6 36 -4 88 8 143 22 303 26 303 1 0 3
11 4 25 6 68 30 199 35 196 3 -2 7 15 8 37 0 23 3 51 6 62 3 11 8 44 12 73 4
28 10 52 14 52 3 0 6 27 6 59 0 33 3 57 8 54 4 -2 8 6 8 19 3 57 10 92 25 124
17 35 17 35 68 29 28 -4 66 -7 84 -7 36 0 121 21 137 34 39 32 52 46 65 71 10
21 19 27 35 23 17 -4 18 -4 4 7 -12 9 -14 18 -8 35 5 12 11 22 15 22 3 0 3 -7
0 -16 -3 -8 -2 -12 4 -9 6 3 8 16 4 29 -4 17 1 25 18 35 13 6 15 9 6 7 -10 -3
-18 -1 -18 4 0 6 5 10 11 10 5 0 8 3 6 8 -8 12 12 54 23 47 5 -3 8 0 5 7 -8
20 11 73 24 70 7 -1 10 2 6 8 -9 14 4 52 16 45 5 -3 6 0 3 8 -2 7 5 36 17 63
12 27 23 54 24 59 7 28 63 123 69 117 4 -4 4 6 0 22 -5 21 -4 27 5 22 6 -4 11
-15 12 -24 0 -10 3 -12 5 -5 3 7 0 21 -6 32 -11 21 -3 28 16 14 5 -5 1 0 -9
10 -17 15 -16 21 4 19 4 -1 4 8 1 20 -4 16 -2 19 9 13 11 -7 11 -5 -1 10 -8
10 -10 16 -3 12 8 -5 12 0 11 15 -2 40 2 49 15 42 9 -5 9 -4 0 6 -9 10 -9 20
1 44 15 37 16 40 16 66 0 11 7 20 15 20 8 0 15 5 15 11 0 5 -4 7 -10 4 -5 -3
-10 -1 -10 4 0 6 4 11 8 11 4 0 9 10 9 22 1 13 6 24 11 26 5 1 7 14 4 28 -3
17 2 30 14 40 11 9 14 13 9 10 -8 -3 -8 14 -1 54 5 32 13 57 18 54 4 -3 8 0 8
5 0 6 -4 11 -8 11 -5 0 -9 7 -9 15 0 8 4 12 8 10 4 -3 6 16 4 42 -2 27 1 53 8
62 9 12 9 13 0 7 -16 -9 -17 17 -3 44 8 16 7 18 -4 14 -16 -6 -16 11 -2 35 6
10 5 12 -2 7 -7 -4 -12 -1 -13 6 -4 54 -8 69 -27 99 -11 19 -32 45 -46 58 -14
13 -23 28 -19 34 3 6 2 7 -4 4 -5 -3 -17 3 -26 14 -9 10 -14 19 -11 19 3 0 -2
7 -11 16 -11 12 -13 20 -6 27 14 14 14 27 0 27 -5 0 -7 -4 -4 -10 3 -5 2 -10
-4 -10 -14 0 -11 61 5 87 16 25 19 46 4 23 -8 -12 -10 -10 -7 10 1 14 6 31 10
38 5 7 3 12 -5 13 -7 0 -4 4 7 9 11 5 15 9 10 9 -6 1 -11 10 -12 21 -1 13 2
18 9 14 7 -5 8 -2 3 7 -5 7 -7 34 -6 59 4 47 5 58 17 150 4 30 7 70 8 87 1 18
4 33 8 33 3 0 5 11 4 25 -2 14 2 35 9 48 6 13 10 33 8 45 -2 15 2 22 15 22 13
0 14 2 3 9 -8 6 -10 14 -5 22 5 8 9 21 11 29 1 8 8 25 14 38 11 19 11 25 0 31
-11 7 -9 11 5 21 17 10 17 11 1 6 -14 -4 -16 -1 -13 19 2 13 1 25 -3 27 -14 6
-22 68 -8 68 7 0 5 5 -5 10 -13 8 -16 22 -13 68 1 31 8 69 14 84 6 15 8 35 5
43 -4 8 -1 15 6 15 6 0 9 -4 5 -9 -3 -5 -1 -12 4 -15 11 -7 9 13 -3 32 -4 7
-6 27 -5 45 2 18 0 38 -5 45 -4 7 -2 12 4 12 7 0 5 11 -4 29 -16 31 -13 43 10
34 8 -3 14 0 14 5 0 6 -9 9 -20 7 -13 -3 -20 2 -21 13 -1 18 -4 33 -15 70 -6
21 2 28 29 23 5 -1 6 3 3 8 -3 5 -16 7 -29 4 -20 -5 -21 -5 -4 8 17 14 17 16
-7 36 -14 13 -23 29 -20 37 3 8 1 17 -5 21 -14 8 -14 45 -1 45 6 0 10 5 10 11
0 5 -4 8 -9 4 -12 -7 -25 31 -16 45 3 5 2 10 -3 10 -5 0 -8 12 -7 28 1 15 -6
50 -15 77 -10 28 -15 60 -14 73 2 13 0 21 -4 18 -4 -2 -8 4 -9 14 -1 10 6 20
16 23 10 2 18 11 18 20 0 9 -4 14 -9 11 -5 -3 -6 -10 -3 -15 4 -5 -1 -9 -9 -9
-12 0 -16 11 -16 41 0 32 -4 42 -20 46 -11 3 -20 10 -20 15 0 5 6 6 13 2 9 -5
9 -4 -1 7 -10 11 -9 16 9 30 17 12 19 18 9 24 -9 5 -11 4 -6 -3 4 -7 3 -12 -2
-12 -6 0 -12 7 -16 15 -3 8 -1 15 4 15 12 0 9 22 -5 33 -6 6 -6 10 3 14 6 2
12 9 12 14 0 6 -4 8 -9 5 -5 -3 -11 3 -14 13 -3 14 -1 18 9 14 8 -3 14 0 14 7
0 6 -4 8 -10 5 -10 -6 -90 71 -90 86 0 4 -6 14 -13 21 -20 21 -52 72 -49 81 1
4 -2 7 -7 7 -4 0 -23 26 -40 58 -18 31 -40 71 -50 87 -13 21 -15 34 -8 43 7 9
5 11 -8 6 -13 -5 -16 -4 -11 4 4 7 3 12 -2 12 -8 0 -77 124 -77 139 0 3 -16
31 -35 61 -19 30 -33 58 -32 63 1 4 -4 7 -12 7 -14 0 -31 27 -27 43 1 5 -3 5
-9 2 -6 -4 -24 7 -41 24 -16 17 -29 27 -29 23 0 -4 -4 -2 -8 4 -4 6 -22 19
-39 28 -18 9 -33 21 -33 26 0 5 -7 7 -15 4 -8 -4 -15 -1 -15 5 0 6 -9 11 -20
11 -11 0 -23 7 -27 16 -5 13 -7 13 -14 2 -6 -10 -9 -8 -9 7 0 15 -2 17 -9 6
-6 -9 -15 -11 -27 -6 -20 9 -37 12 -80 14 -17 1 -23 5 -18 14 6 9 5 9 -8 -1
-18 -14 -68 -12 -68 3 0 5 -4 4 -9 -4 -10 -16 -51 -26 -51 -13 0 5 -9 18 -21
30 -11 12 -17 27 -14 32 3 6 -1 7 -9 4 -9 -3 -16 -1 -16 5 0 6 -7 11 -15 11
-8 0 -15 5 -15 12 0 6 -3 9 -6 5 -3 -3 -24 5 -45 19 -21 13 -41 24 -45 24 -3
0 -13 8 -22 18 -10 9 -14 13 -9 8 11 -15 8 -46 -4 -46 -6 0 -9 7 -6 15 4 8 1
17 -5 21 -7 5 -8 2 -3 -7 5 -8 -1 -6 -12 4 -21 18 -22 18 -33 -3 -10 -18 -9
-24 1 -31 7 -4 11 -10 8 -13 -3 -3 -25 4 -50 16 -49 24 -50 25 -80 27 -11 0
-17 6 -14 11 4 6 11 8 16 5 5 -3 6 2 2 11 -5 13 -3 15 7 9 9 -6 11 -4 5 5 -5
9 -14 4 -31 -16 -21 -26 -30 -23 -26 8 2 12 -27 17 -34 6 -4 -6 -3 -8 3 -5 11
7 28 -22 18 -31 -3 -3 -5 -1 -5 5 0 6 -9 9 -20 6 -11 -3 -20 0 -20 6 0 6 -5
11 -11 11 -5 0 -7 -5 -3 -12 5 -7 3 -8 -5 -3 -7 4 -27 8 -44 10 -49 3 -107 27
-107 45 0 10 -3 11 -8 4 -4 -6 -16 -9 -27 -7 -11 3 -31 5 -45 6 -14 0 -28 5
-32 11 -5 7 -8 6 -8 -4 0 -10 -5 -7 -16 8 -8 12 -20 22 -26 22 -7 0 -3 -7 8
-15 15 -11 16 -15 4 -15 -8 -1 -23 -3 -34 -5 -11 -2 -20 3 -23 16 -3 10 -9 19
-14 19 -11 0 -7 -23 6 -32 6 -5 5 -8 -2 -8 -7 0 -13 -7 -13 -15 0 -22 -13 -19
-39 9 -13 13 -18 27 -13 30 6 3 12 -1 16 -9 3 -8 10 -15 16 -15 5 0 2 9 -7 20
-12 14 -20 16 -30 9 -9 -8 -20 -5 -41 10 -16 11 -32 18 -36 14 -6 -6 -10 12
-7 30 1 5 -3 6 -9 2 -6 -3 -7 -11 -4 -17 4 -6 -1 -8 -12 -4 -11 3 -31 7 -46
10 -15 3 -32 7 -38 11 -5 3 -10 3 -10 -2 0 -11 -111 -10 -128 1 -7 4 -16 5
-19 2 -4 -3 -1 -6 5 -6 7 0 12 -4 12 -8 0 -5 -7 -9 -15 -9 -8 0 -15 4 -15 9 0
15 -29 8 -39 -9 -5 -10 -13 -15 -16 -11 -4 4 -3 13 1 20 13 21 16 58 4 58 -6
0 -9 -4 -6 -9 11 -18 -6 -41 -31 -41 -16 0 -22 4 -18 13 4 6 1 5 -7 -3 -9 -10
-28 -14 -58 -12 -25 1 -55 2 -67 2 -13 0 -23 6 -23 13 0 8 -4 7 -10 -3 -8 -12
-10 -12 -10 -1 0 8 -3 11 -7 8 -3 -4 -13 -1 -21 6 -9 6 -13 7 -9 1 3 -6 -1
-11 -9 -11 -8 0 -13 6 -10 12 2 6 -2 12 -10 12 -7 0 -11 -4 -8 -9 3 -4 -4 -8
-16 -8 -12 0 -19 4 -16 9 3 5 -9 8 -27 8 -77 0 -108 4 -103 11 2 4 -26 8 -64
8 -37 -1 -66 -4 -63 -8 2 -5 0 -8 -5 -8 -5 0 -14 10 -21 23 -10 21 -11 21 -6
1z m2995 -1464 c0 -5 -4 -10 -10 -10 -5 0 -10 5 -10 10 0 6 5 10 10 10 6 0 10
-4 10 -10z m125 -500 c3 -5 2 -10 -4 -10 -5 0 -13 5 -16 10 -3 6 -2 10 4 10 5
0 13 -4 16 -10z m-4775 -440 c0 -5 -5 -10 -11 -10 -5 0 -7 5 -4 10 3 6 8 10
11 10 2 0 4 -4 4 -10z m568 -3236 c-3 -3 0 -30 7 -61 7 -30 9 -51 5 -46 -6 7
-30 92 -30 107 0 3 5 6 12 6 6 0 9 -3 6 -6z m-128 -3244 c0 -5 -5 -10 -11 -10
-5 0 -7 5 -4 10 3 6 8 10 11 10 2 0 4 -4 4 -10z"/>
<path d="M5260 10866 c0 -2 8 -10 18 -17 15 -13 16 -12 3 4 -13 16 -21 21 -21
13z"/>
<path d="M5352 10858 c2 -6 10 -13 16 -14 7 -1 8 0 2 3 -5 2 -8 9 -4 14 3 5 0
9 -6 9 -7 0 -10 -5 -8 -12z"/>
<path d="M5430 10850 c-9 -6 -10 -10 -3 -10 6 0 15 5 18 10 8 12 4 12 -15 0z"/>
<path d="M5300 10845 c0 -7 30 -13 34 -7 3 4 -4 9 -15 9 -10 1 -19 0 -19 -2z"/>
<path d="M5455 10840 c-3 -5 -1 -10 4 -10 6 0 11 5 11 10 0 6 -2 10 -4 10 -3
0 -8 -4 -11 -10z"/>
<path d="M5759 10833 c-13 -17 -13 -17 6 -3 11 8 22 16 24 17 2 2 0 3 -6 3 -6
0 -17 -8 -24 -17z"/>
<path d="M5825 10840 c-3 -6 1 -7 9 -4 18 7 21 14 7 14 -6 0 -13 -4 -16 -10z"/>
<path d="M5910 10843 c0 -6 8 -17 18 -24 16 -13 16 -13 2 6 -8 11 -16 22 -17
24 -2 2 -3 0 -3 -6z"/>
<path d="M5930 10845 c0 -7 30 -13 34 -7 3 4 -4 9 -15 9 -10 1 -19 0 -19 -2z"/>
<path d="M5010 10830 c-9 -6 -10 -10 -3 -10 6 0 15 5 18 10 8 12 4 12 -15 0z"/>
<path d="M5680 10831 c0 -6 4 -13 10 -16 6 -3 7 1 4 9 -7 18 -14 21 -14 7z"/>
<path d="M5530 10826 c0 -2 7 -7 16 -10 8 -3 12 -2 9 4 -6 10 -25 14 -25 6z"/>
<path d="M5573 10816 c0 -6 13 -11 28 -11 32 0 29 11 -4 17 -13 3 -24 0 -24
-6z"/>
<path d="M5645 10820 c-3 -6 1 -7 9 -4 18 7 21 14 7 14 -6 0 -13 -4 -16 -10z"/>
<path d="M5775 10819 c-3 -4 2 -6 10 -5 21 3 28 13 10 13 -9 0 -18 -4 -20 -8z"/>
<path d="M5840 10820 c-8 -5 -10 -10 -5 -10 6 0 17 5 25 10 8 5 11 10 5 10 -5
0 -17 -5 -25 -10z"/>
<path d="M5876 10814 c-11 -8 -16 -14 -10 -14 13 0 39 18 34 24 -3 2 -14 -2
-24 -10z"/>
<path d="M5990 10820 c0 -5 5 -10 11 -10 5 0 7 5 4 10 -3 6 -8 10 -11 10 -2 0
-4 -4 -4 -10z"/>
<path d="M6050 10820 c0 -5 5 -10 11 -10 5 0 7 5 4 10 -3 6 -8 10 -11 10 -2 0
-4 -4 -4 -10z"/>
<path d="M4915 10810 c-3 -5 -1 -10 4 -10 6 0 11 5 11 10 0 6 -2 10 -4 10 -3
0 -8 -4 -11 -10z"/>
<path d="M5817 10799 c7 -7 15 -10 18 -7 3 3 -2 9 -12 12 -14 6 -15 5 -6 -5z"/>
<path d="M5954 10802 c4 -3 14 -7 22 -8 9 -1 13 0 10 4 -4 3 -14 7 -22 8 -9 1
-13 0 -10 -4z"/>
<path d="M6185 10789 c-16 -10 -24 -19 -17 -19 7 0 10 -5 6 -12 -5 -7 -3 -8 5
-4 7 5 10 10 7 13 -3 3 5 14 17 24 28 24 20 23 -18 -2z"/>
<path d="M6061 10797 c2 -1 12 -9 22 -16 15 -12 17 -12 11 3 -3 9 -13 16 -22
16 -8 0 -13 -1 -11 -3z"/>
<path d="M6300 10796 c0 -2 7 -6 15 -10 8 -3 15 -1 15 4 0 6 -7 10 -15 10 -8
0 -15 -2 -15 -4z"/>
<path d="M6354 10780 c0 -15 4 -16 18 -9 10 5 18 15 17 22 0 9 -2 8 -6 -1 -3
-9 -9 -10 -17 -3 -8 7 -12 5 -12 -9z"/>
<path d="M6414 10778 c-4 -5 -3 -12 0 -15 3 -4 6 -1 6 6 0 7 4 10 9 6 5 -3 12
-2 15 3 3 5 -2 9 -10 9 -8 0 -17 -4 -20 -9z"/>
<path d="M6475 10780 c-6 -10 11 -50 21 -50 2 0 0 9 -6 19 -14 26 -13 31 5 25
8 -4 15 -4 15 -1 0 10 -30 16 -35 7z"/>
<path d="M6220 10776 c0 -2 7 -7 16 -10 8 -3 12 -2 9 4 -6 10 -25 14 -25 6z"/>
<path d="M6270 10770 c-9 -6 -10 -10 -3 -10 6 0 15 5 18 10 8 12 4 12 -15 0z"/>
<path d="M4714 10755 c-4 -8 -11 -12 -17 -8 -5 3 -7 1 -4 -5 8 -12 32 -10 44
3 5 4 2 5 -6 0 -11 -6 -13 -4 -8 8 3 10 4 17 1 17 -2 0 -7 -7 -10 -15z"/>
<path d="M4756 10753 c-6 -14 -5 -15 5 -6 7 7 10 15 7 18 -3 3 -9 -2 -12 -12z"/>
<path d="M6110 10760 c0 -5 5 -10 10 -10 6 0 10 5 10 10 0 6 -4 10 -10 10 -5
0 -10 -4 -10 -10z"/>
<path d="M6295 10759 c-5 -8 -5 -11 0 -7 4 4 13 1 19 -7 8 -11 15 -12 26 -4
13 9 13 10 0 6 -8 -2 -20 3 -26 11 -9 13 -12 13 -19 1z"/>
<path d="M6519 10744 c-5 -15 -8 -29 -5 -31 2 -2 8 10 14 26 13 38 5 41 -9 5z"/>
<path d="M6636 10753 c-6 -14 -5 -15 5 -6 7 7 10 15 7 18 -3 3 -9 -2 -12 -12z"/>
<path d="M6433 10732 c-1 -22 0 -24 9 -8 6 10 6 22 2 26 -5 5 -10 -3 -11 -18z"/>
<path d="M6570 10750 c-9 -6 -10 -10 -3 -10 6 0 15 5 18 10 8 12 4 12 -15 0z"/>
<path d="M6602 10740 c-7 -11 -8 -20 -3 -20 9 0 24 30 18 36 -1 2 -8 -6 -15
-16z"/>
<path d="M6385 10739 c-4 -6 -4 -13 -1 -16 3 -4 6 -1 6 6 0 8 6 11 16 7 8 -3
12 -2 9 4 -8 13 -22 13 -30 -1z"/>
<path d="M4630 10736 c0 -2 8 -10 18 -17 15 -13 16 -12 3 4 -13 16 -21 21 -21
13z"/>
<path d="M4673 10708 c-2 -18 0 -20 7 -8 12 18 13 30 2 30 -4 0 -9 -10 -9 -22z"/>
<path d="M6455 10719 c-5 -8 -4 -10 3 -5 7 4 12 3 12 -3 0 -5 -6 -12 -12 -14
-10 -4 -10 -6 -1 -6 17 -1 27 19 15 31 -6 6 -12 6 -17 -3z"/>
<path d="M6535 10721 c-6 -11 13 -26 22 -17 4 3 1 6 -6 6 -7 0 -9 5 -6 10 3 6
4 10 1 10 -3 0 -7 -4 -11 -9z"/>
<path d="M6710 10725 c0 -7 30 -13 34 -7 3 4 -4 9 -15 9 -10 1 -19 0 -19 -2z"/>
<path d="M6660 10716 c0 -2 7 -7 16 -10 8 -3 12 -2 9 4 -6 10 -25 14 -25 6z"/>
<path d="M6770 10717 c0 -2 6 -10 14 -16 11 -9 16 -9 22 1 4 7 4 10 -1 6 -4
-4 -14 -3 -22 3 -7 6 -13 9 -13 6z"/>
<path d="M6596 10695 c-11 -8 -15 -15 -9 -15 6 0 16 7 23 15 16 19 11 19 -14
0z"/>
<path d="M6640 10700 c8 -5 20 -10 25 -10 6 0 3 5 -5 10 -8 5 -19 10 -25 10
-5 0 -3 -5 5 -10z"/>
<path d="M6740 10700 c-9 -6 -10 -10 -3 -10 6 0 15 5 18 10 8 12 4 12 -15 0z"/>
<path d="M6821 10696 c-9 -11 -9 -16 0 -22 7 -4 9 -3 5 4 -3 5 0 12 6 15 7 2
10 7 7 11 -3 4 -12 0 -18 -8z"/>
<path d="M6866 10695 c4 -8 11 -15 16 -15 6 0 5 6 -2 15 -7 8 -14 15 -16 15
-2 0 -1 -7 2 -15z"/>
<path d="M6516 10687 c3 -10 9 -15 12 -12 3 3 0 11 -7 18 -10 9 -11 8 -5 -6z"/>
<path d="M4633 10675 c0 -8 4 -12 9 -9 4 3 8 9 8 15 0 5 -4 9 -8 9 -5 0 -9 -7
-9 -15z"/>
<path d="M6755 10681 c-3 -5 -2 -12 3 -15 5 -3 9 1 9 9 0 17 -3 19 -12 6z"/>
<path d="M6936 10675 c-11 -8 -16 -15 -10 -15 5 0 18 7 28 15 11 8 16 15 10
15 -5 0 -18 -7 -28 -15z"/>
<path d="M6781 10673 c-1 -17 16 -25 25 -12 4 7 3 9 -4 5 -5 -3 -13 0 -15 6
-4 9 -6 10 -6 1z"/>
<path d="M4600 10660 c-9 -6 -10 -10 -3 -10 6 0 15 5 18 10 8 12 4 12 -15 0z"/>
<path d="M6966 10657 c3 -10 9 -15 12 -12 3 3 0 11 -7 18 -10 9 -11 8 -5 -6z"/>
<path d="M6993 10645 c0 -8 4 -12 9 -9 5 3 6 10 3 15 -9 13 -12 11 -12 -6z"/>
<path d="M6774 10642 c3 -5 0 -13 -6 -15 -9 -4 -10 -6 -1 -6 17 -1 25 16 12
25 -7 4 -9 3 -5 -4z"/>
<path d="M6950 10644 c0 -13 18 -39 24 -34 2 3 -2 14 -10 24 -8 11 -14 16 -14
10z"/>
<path d="M4536 10627 c3 -10 9 -15 12 -12 3 3 0 11 -7 18 -10 9 -11 8 -5 -6z"/>
<path d="M4490 10620 c0 -5 5 -10 11 -10 5 0 7 5 4 10 -3 6 -8 10 -11 10 -2 0
-4 -4 -4 -10z"/>
<path d="M6999 10613 c-13 -17 -13 -17 6 -3 11 8 22 16 24 17 2 2 0 3 -6 3 -6
0 -17 -8 -24 -17z"/>
<path d="M7046 10618 c3 -4 9 -8 15 -8 5 0 9 4 9 8 0 5 -7 9 -15 9 -8 0 -12
-4 -9 -9z"/>
<path d="M4430 10605 c0 -7 30 -13 34 -7 3 4 -4 9 -15 9 -10 1 -19 0 -19 -2z"/>
<path d="M7015 10601 c-6 -10 33 -36 42 -28 2 3 -5 8 -16 12 -12 3 -19 11 -16
16 4 5 4 9 1 9 -3 0 -7 -4 -11 -9z"/>
<path d="M7117 10599 c7 -7 15 -10 18 -7 3 3 -2 9 -12 12 -14 6 -15 5 -6 -5z"/>
<path d="M4416 10585 c4 -8 11 -15 16 -15 6 0 5 6 -2 15 -7 8 -14 15 -16 15
-2 0 -1 -7 2 -15z"/>
<path d="M4475 10590 c-3 -6 1 -7 9 -4 18 7 21 14 7 14 -6 0 -13 -4 -16 -10z"/>
<path d="M7074 10581 c0 -11 4 -17 8 -15 4 3 8 12 8 20 0 8 -4 14 -8 14 -4 0
-8 -9 -8 -19z"/>
<path d="M7145 10580 c-3 -6 1 -7 9 -4 18 7 21 14 7 14 -6 0 -13 -4 -16 -10z"/>
<path d="M4316 10562 c-3 -4 4 -9 15 -9 23 -2 25 3 4 10 -8 4 -16 3 -19 -1z"/>
<path d="M4375 10560 c3 -5 2 -10 -2 -10 -5 0 -18 -7 -29 -15 -16 -14 -15 -14
14 0 18 9 30 20 27 25 -4 6 -8 10 -11 10 -3 0 -2 -4 1 -10z"/>
<path d="M7190 10561 c0 -6 4 -12 8 -15 5 -3 9 1 9 9 0 8 -4 15 -9 15 -4 0 -8
-4 -8 -9z"/>
<path d="M7091 10552 c-1 -7 -6 -10 -13 -6 -7 4 -8 3 -4 -5 4 -6 11 -9 16 -6
4 3 10 0 12 -7 3 -7 7 -5 11 6 4 9 3 15 -2 11 -5 -3 -12 1 -14 7 -4 10 -6 10
-6 0z"/>
<path d="M7150 10554 c0 -5 6 -18 13 -29 12 -15 15 -16 22 -4 5 8 4 10 0 6 -5
-4 -15 3 -22 15 -7 13 -12 18 -13 12z"/>
<path d="M4284 10535 c8 -7 12 -16 8 -20 -4 -5 -2 -5 5 -1 16 9 6 33 -14 33
-14 0 -14 -1 1 -12z"/>
<path d="M7295 10540 c-3 -5 -1 -10 4 -10 6 0 11 5 11 10 0 6 -2 10 -4 10 -3
0 -8 -4 -11 -10z"/>
<path d="M7393 10527 c0 -8 6 -14 14 -14 9 0 10 4 2 14 -6 7 -12 13 -14 13 -1
0 -2 -6 -2 -13z"/>
<path d="M7116 10513 c-6 -14 -5 -15 5 -6 7 7 10 15 7 18 -3 3 -9 -2 -12 -12z"/>
<path d="M7196 10513 c-6 -14 -5 -15 5 -6 7 7 10 15 7 18 -3 3 -9 -2 -12 -12z"/>
<path d="M7273 10515 c0 -8 4 -12 9 -9 5 3 6 10 3 15 -9 13 -12 11 -12 -6z"/>
<path d="M7335 10520 c5 -9 1 -10 -16 -6 -21 6 -22 6 -6 -5 13 -7 22 -8 29 -1
6 6 6 12 -3 17 -8 6 -10 4 -4 -5z"/>
<path d="M4205 10499 c-4 -6 -5 -12 -2 -15 2 -3 7 2 10 11 7 17 1 20 -8 4z"/>
<path d="M4305 10500 c-3 -6 1 -7 9 -4 18 7 21 14 7 14 -6 0 -13 -4 -16 -10z"/>
<path d="M7470 10493 c12 -25 25 -29 36 -11 5 7 3 8 -5 4 -7 -5 -19 0 -27 10
-14 18 -14 18 -4 -3z"/>
<path d="M7395 10489 c-4 -6 -5 -12 -2 -15 2 -3 7 2 10 11 7 17 1 20 -8 4z"/>
<path d="M4196 10455 c-11 -8 -15 -15 -9 -15 7 0 15 5 18 10 4 6 11 8 16 5 5
-4 9 -1 9 4 0 15 -11 13 -34 -4z"/>
<path d="M7440 10460 c18 -12 30 -13 30 -2 0 4 -10 9 -22 9 -18 2 -20 0 -8 -7z"/>
<path d="M7525 10440 c-3 -6 1 -7 9 -4 18 7 21 14 7 14 -6 0 -13 -4 -16 -10z"/>
<path d="M7470 10436 c0 -2 7 -9 15 -16 13 -11 14 -10 9 4 -5 14 -24 23 -24
12z"/>
<path d="M7535 10420 c-3 -5 -1 -10 4 -10 6 0 11 5 11 10 0 6 -2 10 -4 10 -3
0 -8 -4 -11 -10z"/>
<path d="M4150 10400 c0 -5 5 -10 10 -10 6 0 10 5 10 10 0 6 -4 10 -10 10 -5
0 -10 -4 -10 -10z"/>
<path d="M7575 10400 c3 -5 8 -10 11 -10 2 0 4 5 4 10 0 6 -5 10 -11 10 -5 0
-7 -4 -4 -10z"/>
<path d="M7552 10386 c7 -8 15 -12 17 -11 5 6 -10 25 -20 25 -5 0 -4 -6 3 -14z"/>
<path d="M4090 10371 c0 -6 4 -13 10 -16 6 -3 7 1 4 9 -7 18 -14 21 -14 7z"/>
<path d="M7573 10356 c-3 -5 -1 -6 5 -2 7 4 12 2 12 -3 0 -6 5 -11 11 -11 5 0
7 5 3 12 -5 8 -2 9 10 5 9 -4 15 -3 11 2 -7 12 -45 10 -52 -3z"/>
<path d="M4010 10340 c0 -5 5 -10 11 -10 5 0 7 5 4 10 -3 6 -8 10 -11 10 -2 0
-4 -4 -4 -10z"/>
<path d="M7635 10340 c-3 -5 -1 -10 4 -10 6 0 11 5 11 10 0 6 -2 10 -4 10 -3
0 -8 -4 -11 -10z"/>
<path d="M3947 10299 c7 -7 15 -10 18 -7 3 3 -2 9 -12 12 -14 6 -15 5 -6 -5z"/>
<path d="M7655 10300 c-3 -5 -1 -10 4 -10 6 0 11 5 11 10 0 6 -2 10 -4 10 -3
0 -8 -4 -11 -10z"/>
<path d="M4016 10283 c-6 -14 -5 -15 5 -6 7 7 10 15 7 18 -3 3 -9 -2 -12 -12z"/>
<path d="M3918 10263 c7 -3 16 -2 19 1 4 3 -2 6 -13 5 -11 0 -14 -3 -6 -6z"/>
<path d="M7685 10259 c-4 -6 -4 -13 -1 -16 3 -4 6 -1 6 6 0 7 5 9 12 5 7 -4 8
-3 4 4 -9 15 -13 15 -21 1z"/>
<path d="M3960 10251 c0 -6 4 -13 10 -16 6 -3 7 1 4 9 -7 18 -14 21 -14 7z"/>
<path d="M3873 10225 c0 -8 4 -12 9 -9 5 3 6 10 3 15 -9 13 -12 11 -12 -6z"/>
<path d="M3896 10201 c-3 -4 6 -6 19 -3 14 2 25 6 25 8 0 8 -39 4 -44 -5z"/>
<path d="M7708 10203 c7 -3 16 -2 19 1 4 3 -2 6 -13 5 -11 0 -14 -3 -6 -6z"/>
<path d="M3875 10160 c-3 -5 -1 -10 4 -10 6 0 11 5 11 10 0 6 -2 10 -4 10 -3
0 -8 -4 -11 -10z"/>
<path d="M7736 10137 c3 -10 9 -15 12 -12 3 3 0 11 -7 18 -10 9 -11 8 -5 -6z"/>
<path d="M7777 10123 c-10 -10 -8 -41 2 -48 5 -3 13 0 17 6 5 8 3 9 -6 4 -10
-6 -12 -1 -8 19 6 28 5 30 -5 19z"/>
<path d="M3837 10073 c-4 -3 -7 -11 -7 -17 0 -6 5 -5 12 2 6 6 9 14 7 17 -3 3
-9 2 -12 -2z"/>
<path d="M7794 10059 c-3 -6 -1 -16 5 -22 9 -9 10 -7 5 7 -6 15 -4 17 6 11 9
-5 11 -4 6 3 -9 15 -13 15 -22 1z"/>
<path d="M3800 10030 c-6 -11 -8 -20 -6 -20 3 0 10 9 16 20 6 11 8 20 6 20 -3
0 -10 -9 -16 -20z"/>
<path d="M3716 10022 c-3 -5 1 -9 9 -9 8 0 12 4 9 9 -3 4 -7 8 -9 8 -2 0 -6
-4 -9 -8z"/>
<path d="M3816 10013 c-6 -14 -5 -15 5 -6 7 7 10 15 7 18 -3 3 -9 -2 -12 -12z"/>
<path d="M3772 9991 c-11 -7 -11 -9 0 -14 9 -3 15 1 15 9 0 8 -1 14 -1 14 -1
0 -7 -4 -14 -9z"/>
<path d="M7835 9960 c3 -5 8 -10 11 -10 2 0 4 5 4 10 0 6 -5 10 -11 10 -5 0
-7 -4 -4 -10z"/>
<path d="M7867 9919 c7 -7 15 -10 18 -7 3 3 -2 9 -12 12 -14 6 -15 5 -6 -5z"/>
<path d="M3695 9850 c-4 -6 1 -7 11 -3 13 5 15 3 9 -7 -5 -9 -4 -11 4 -6 6 4
9 12 6 17 -8 12 -22 12 -30 -1z"/>
<path d="M7906 9843 c-6 -14 -5 -15 5 -6 7 7 10 15 7 18 -3 3 -9 -2 -12 -12z"/>
<path d="M3681 9823 c7 -12 15 -20 18 -17 3 2 -3 12 -13 22 -17 16 -18 16 -5
-5z"/>
<path d="M7930 9821 c0 -6 4 -13 10 -16 6 -3 7 1 4 9 -7 18 -14 21 -14 7z"/>
<path d="M3636 9794 c-3 -9 -2 -22 2 -31 6 -10 9 -5 9 16 0 35 -2 38 -11 15z"/>
<path d="M7936 9778 c3 -4 11 -5 19 -1 21 7 19 12 -4 10 -11 0 -18 -5 -15 -9z"/>
<path d="M3604 9755 c-4 -8 -11 -12 -17 -8 -6 4 -7 1 -2 -7 6 -10 11 -10 20 3
7 9 16 13 20 9 5 -4 5 -1 1 6 -9 16 -15 15 -22 -3z"/>
<path d="M7974 9762 c3 -5 1 -12 -6 -14 -8 -3 -9 -6 -1 -11 6 -4 13 0 17 8 3
8 0 17 -6 21 -6 4 -8 3 -4 -4z"/>
<path d="M3615 9731 c-3 -5 0 -13 6 -17 7 -4 9 -3 5 4 -3 5 0 13 6 15 9 4 10
6 1 6 -6 1 -14 -3 -18 -8z"/>
<path d="M7999 9738 c-6 -20 -6 -39 0 -42 4 -3 7 6 7 20 0 20 -4 32 -7 22z"/>
<path d="M3546 9702 c-2 -4 4 -8 15 -8 10 0 19 4 19 8 0 4 -6 8 -14 8 -8 0
-17 -4 -20 -8z"/>
<path d="M3480 9670 c-6 -11 -7 -20 -2 -20 6 0 12 9 15 20 3 11 3 20 1 20 -2
0 -8 -9 -14 -20z"/>
<path d="M8035 9680 c6 -10 4 -12 -8 -7 -21 8 -22 3 -3 -12 10 -9 15 -8 19 3
4 9 1 18 -5 22 -7 5 -8 2 -3 -6z"/>
<path d="M3547 9666 c-4 -11 -5 -21 -2 -24 3 -3 5 0 5 7 0 7 4 10 9 6 5 -3 13
0 17 6 4 7 3 9 -4 5 -5 -3 -12 -1 -14 6 -3 7 -7 5 -11 -6z"/>
<path d="M3519 9658 c-5 -18 -6 -38 -1 -34 7 8 12 36 6 36 -2 0 -4 -1 -5 -2z"/>
<path d="M3431 9643 c-1 -17 19 -27 31 -15 6 6 6 12 -3 17 -8 5 -10 4 -5 -3 4
-7 3 -12 -3 -12 -5 0 -12 6 -14 13 -4 9 -6 9 -6 0z"/>
<path d="M3402 9624 c10 -10 20 -16 22 -13 3 3 -5 11 -17 18 -21 13 -21 12 -5
-5z"/>
<path d="M3482 9620 c-7 -11 -8 -20 -3 -20 9 0 24 30 18 36 -1 2 -8 -6 -15
-16z"/>
<path d="M3361 9613 c-1 -17 16 -25 25 -12 4 7 3 9 -4 5 -5 -3 -13 0 -15 6 -4
9 -6 10 -6 1z"/>
<path d="M3399 9598 c-6 -21 -5 -37 2 -32 5 3 7 9 4 14 -3 4 1 11 7 13 10 4
10 6 1 6 -7 1 -13 0 -14 -1z"/>
<path d="M3348 9563 c6 -2 18 -2 25 0 6 3 1 5 -13 5 -14 0 -19 -2 -12 -5z"/>
<path d="M3428 9563 c7 -3 16 -2 19 1 4 3 -2 6 -13 5 -11 0 -14 -3 -6 -6z"/>
<path d="M3468 9563 c7 -3 16 -2 19 1 4 3 -2 6 -13 5 -11 0 -14 -3 -6 -6z"/>
<path d="M3320 9540 c-8 -5 -10 -10 -5 -10 6 0 17 5 25 10 8 5 11 10 5 10 -5
0 -17 -5 -25 -10z"/>
<path d="M3384 9538 c10 -6 22 -6 26 -2 5 5 -3 10 -18 11 -22 1 -24 0 -8 -9z"/>
<path d="M8100 9539 c0 -4 6 -9 13 -12 8 -3 14 0 14 7 0 7 -6 13 -14 13 -7 0
-13 -4 -13 -8z"/>
<path d="M3339 9528 c-6 -22 -5 -39 3 -45 7 -3 8 -1 4 5 -5 8 0 12 13 12 24 0
36 16 20 26 -8 4 -9 3 -5 -4 5 -8 -1 -12 -14 -12 -12 0 -18 5 -15 10 3 6 4 10
1 10 -3 0 -6 -1 -7 -2z"/>
<path d="M3404 9494 c-18 -14 -18 -14 6 -3 31 14 36 19 24 19 -6 0 -19 -7 -30
-16z"/>
<path d="M8115 9500 c-3 -5 -1 -10 4 -10 6 0 11 5 11 10 0 6 -2 10 -4 10 -3 0
-8 -4 -11 -10z"/>
<path d="M3432 9483 c1 -5 -4 -19 -11 -33 l-12 -25 20 25 c23 28 26 40 11 40
-5 0 -9 -3 -8 -7z"/>
<path d="M3390 9450 c-9 -6 -10 -10 -3 -10 6 0 15 5 18 10 8 12 4 12 -15 0z"/>
<path d="M8110 9450 c0 -5 5 -10 11 -10 5 0 7 5 4 10 -3 6 -8 10 -11 10 -2 0
-4 -4 -4 -10z"/>
<path d="M3425 9420 c-3 -6 1 -7 9 -4 18 7 21 14 7 14 -6 0 -13 -4 -16 -10z"/>
<path d="M8112 9414 c10 -10 20 -16 22 -13 3 3 -5 11 -17 18 -21 13 -21 12 -5
-5z"/>
<path d="M3456 9398 c5 -7 2 -9 -8 -6 -8 4 -15 0 -15 -7 0 -10 5 -11 19 -4 16
9 17 29 2 29 -3 0 -2 -5 2 -12z"/>
<path d="M3350 9376 c7 -7 13 -7 20 0 6 6 3 10 -10 10 -13 0 -16 -4 -10 -10z"/>
<path d="M8125 9380 c-3 -6 1 -7 9 -4 18 7 21 14 7 14 -6 0 -13 -4 -16 -10z"/>
<path d="M3400 9346 c0 -2 8 -10 18 -17 15 -13 16 -12 3 4 -13 16 -21 21 -21
13z"/>
<path d="M3410 9306 c0 -2 7 -7 16 -10 8 -3 12 -2 9 4 -6 10 -25 14 -25 6z"/>
<path d="M3398 9283 c7 -3 16 -2 19 1 4 3 -2 6 -13 5 -11 0 -14 -3 -6 -6z"/>
<path d="M3376 9257 c3 -10 9 -15 12 -12 3 3 0 11 -7 18 -10 9 -11 8 -5 -6z"/>
<path d="M3420 9260 c0 -5 5 -10 11 -10 5 0 7 5 4 10 -3 6 -8 10 -11 10 -2 0
-4 -4 -4 -10z"/>
<path d="M3385 9220 c-3 -6 1 -7 9 -4 18 7 21 14 7 14 -6 0 -13 -4 -16 -10z"/>
<path d="M8147 9193 c3 -7 6 -13 8 -13 2 0 5 6 8 13 3 8 -1 14 -8 14 -7 0 -11
-6 -8 -14z"/>
<path d="M3380 9196 c0 -2 7 -7 16 -10 8 -3 12 -2 9 4 -6 10 -25 14 -25 6z"/>
<path d="M3358 9163 c7 -3 16 -2 19 1 4 3 -2 6 -13 5 -11 0 -14 -3 -6 -6z"/>
<path d="M8165 9159 c-4 -6 -5 -12 -2 -15 2 -3 7 2 10 11 7 17 1 20 -8 4z"/>
<path d="M3374 9122 c3 -5 0 -13 -6 -15 -9 -4 -10 -6 -1 -6 17 -1 25 16 12 25
-7 4 -9 3 -5 -4z"/>
<path d="M8173 9123 c4 -6 2 -13 -4 -15 -7 -2 -6 -8 3 -16 12 -9 14 -8 13 8
-1 11 -5 23 -10 27 -4 5 -5 3 -2 -4z"/>
<path d="M3330 9020 c0 -5 5 -10 11 -10 5 0 7 5 4 10 -3 6 -8 10 -11 10 -2 0
-4 -4 -4 -10z"/>
<path d="M3315 8990 c-3 -6 1 -7 9 -4 18 7 21 14 7 14 -6 0 -13 -4 -16 -10z"/>
<path d="M8195 8981 c-3 -5 -2 -12 3 -15 5 -3 9 1 9 9 0 17 -3 19 -12 6z"/>
<path d="M3315 8950 c-4 -6 -11 -8 -16 -5 -5 4 -9 1 -9 -4 0 -16 16 -13 30 4
7 8 10 15 7 15 -3 0 -9 -5 -12 -10z"/>
<path d="M8215 8931 c-3 -5 -2 -12 3 -15 5 -3 9 1 9 9 0 17 -3 19 -12 6z"/>
<path d="M3278 8883 c7 -3 16 -2 19 1 4 3 -2 6 -13 5 -11 0 -14 -3 -6 -6z"/>
<path d="M3304 8852 c0 -19 19 -24 31 -9 3 4 2 5 -2 2 -3 -3 -11 2 -17 11 -10
13 -12 13 -12 -4z"/>
<path d="M3315 8800 c-3 -5 -1 -10 4 -10 6 0 11 5 11 10 0 6 -2 10 -4 10 -3 0
-8 -4 -11 -10z"/>
<path d="M3336 8775 c-9 -26 -7 -32 5 -12 6 10 9 21 6 23 -2 3 -7 -2 -11 -11z"/>
<path d="M3357 8753 c-10 -9 -9 -23 1 -23 5 0 9 7 9 15 0 17 -1 18 -10 8z"/>
<path d="M3374 8719 c-4 -7 -3 -9 4 -5 5 3 13 0 15 -6 4 -9 6 -10 6 -1 1 17
-16 25 -25 12z"/>
<path d="M3393 8683 c4 -3 1 -13 -6 -22 -11 -14 -10 -14 6 -2 20 15 22 31 5
31 -6 0 -8 -3 -5 -7z"/>
<path d="M8276 8678 c3 -5 10 -6 15 -3 13 9 11 12 -6 12 -8 0 -12 -4 -9 -9z"/>
<path d="M3410 8619 c0 -5 5 -7 10 -4 6 3 10 8 10 11 0 2 -4 4 -10 4 -5 0 -10
-5 -10 -11z"/>
<path d="M8267 8611 c-4 -17 -3 -21 5 -13 5 5 8 16 6 23 -3 8 -7 3 -11 -10z"/>
<path d="M8270 8499 c0 -5 5 -7 10 -4 6 3 10 8 10 11 0 2 -4 4 -10 4 -5 0 -10
-5 -10 -11z"/>
<path d="M8243 8475 c-3 -9 -3 -18 -1 -21 3 -3 8 4 11 16 6 23 -1 27 -10 5z"/>
<path d="M8230 8410 c0 -6 7 -10 15 -10 8 0 15 2 15 4 0 2 -7 6 -15 10 -8 3
-15 1 -15 -4z"/>
<path d="M8251 8294 c0 -11 3 -14 6 -6 3 7 2 16 -1 19 -3 4 -6 -2 -5 -13z"/>
<path d="M8255 8059 c-4 -6 -5 -12 -2 -15 2 -3 7 2 10 11 7 17 1 20 -8 4z"/>
<path d="M8223 7978 c1 -15 6 -23 11 -18 4 4 4 16 -2 26 -9 16 -10 14 -9 -8z"/>
<path d="M8206 7862 c-3 -5 1 -9 9 -9 8 0 12 4 9 9 -3 4 -7 8 -9 8 -2 0 -6 -4
-9 -8z"/>
<path d="M8196 7802 c-3 -5 1 -9 9 -9 8 0 12 4 9 9 -3 4 -7 8 -9 8 -2 0 -6 -4
-9 -8z"/>
<path d="M3415 7751 c-3 -5 -2 -12 3 -15 5 -3 9 1 9 9 0 17 -3 19 -12 6z"/>
<path d="M3396 7582 c-3 -5 1 -9 9 -9 8 0 12 4 9 9 -3 4 -7 8 -9 8 -2 0 -6 -4
-9 -8z"/>
<path d="M3386 7498 c3 -5 10 -6 15 -3 13 9 11 12 -6 12 -8 0 -12 -4 -9 -9z"/>
<path d="M3379 7478 c-5 -16 -4 -46 2 -42 4 2 7 13 6 24 -1 17 -5 26 -8 18z"/>
<path d="M3401 7464 c0 -11 3 -14 6 -6 3 7 2 16 -1 19 -3 4 -6 -2 -5 -13z"/>
<path d="M8174 7423 c1 -12 5 -25 9 -28 4 -3 5 -2 2 2 -3 3 1 13 8 21 8 11 8
14 0 9 -6 -4 -14 -1 -17 5 -2 7 -4 3 -2 -9z"/>
<path d="M8194 7345 c0 -16 4 -21 15 -17 10 4 11 7 3 10 -7 2 -10 8 -7 12 3 5
2 11 -3 14 -4 2 -8 -6 -8 -19z"/>
<path d="M3315 7340 c-3 -5 -1 -10 4 -10 6 0 11 5 11 10 0 6 -2 10 -4 10 -3 0
-8 -4 -11 -10z"/>
<path d="M3269 7303 c-13 -16 -12 -17 4 -4 9 7 17 15 17 17 0 8 -8 3 -21 -13z"/>
<path d="M8210 7310 c-9 -6 -10 -10 -3 -10 6 0 15 5 18 10 8 12 4 12 -15 0z"/>
<path d="M8242 7298 c-15 -15 -15 -28 0 -28 6 0 8 3 5 7 -4 3 -2 12 4 20 14
16 7 17 -9 1z"/>
<path d="M3290 7259 c0 -5 5 -7 10 -4 6 3 10 8 10 11 0 2 -4 4 -10 4 -5 0 -10
-5 -10 -11z"/>
<path d="M8270 7241 c0 -6 4 -13 10 -16 6 -3 7 1 4 9 -7 18 -14 21 -14 7z"/>
<path d="M8295 7200 c3 -5 8 -10 11 -10 2 0 4 5 4 10 0 6 -5 10 -11 10 -5 0
-7 -4 -4 -10z"/>
<path d="M3271 7174 c0 -11 3 -14 6 -6 3 7 2 16 -1 19 -3 4 -6 -2 -5 -13z"/>
<path d="M3250 7142 c0 -5 7 -9 15 -9 8 0 12 4 9 9 -3 4 -9 8 -15 8 -5 0 -9
-4 -9 -8z"/>
<path d="M3240 7111 c0 -6 4 -13 10 -16 6 -3 7 1 4 9 -7 18 -14 21 -14 7z"/>
<path d="M8317 7109 c7 -7 15 -10 18 -7 3 3 -2 9 -12 12 -14 6 -15 5 -6 -5z"/>
<path d="M3230 7060 c-11 -7 -11 -10 -2 -10 8 0 10 -5 6 -12 -4 -7 -3 -9 1 -5
7 6 17 37 12 37 -1 0 -9 -5 -17 -10z"/>
<path d="M8331 7067 c2 -1 15 -11 29 -22 l25 -20 -19 23 c-11 12 -24 22 -29
22 -6 0 -8 -1 -6 -3z"/>
<path d="M8335 7019 c-4 -6 -5 -12 -2 -15 2 -3 7 2 10 11 7 17 1 20 -8 4z"/>
<path d="M3236 6993 c-6 -14 -5 -15 5 -6 7 7 10 15 7 18 -3 3 -9 -2 -12 -12z"/>
<path d="M8350 7003 c0 -6 8 -17 18 -24 16 -13 16 -13 2 6 -8 11 -16 22 -17
24 -2 2 -3 0 -3 -6z"/>
<path d="M3255 6960 c6 -10 3 -12 -11 -7 -18 7 -18 7 0 -8 11 -8 25 -15 30
-14 6 0 5 3 -2 6 -6 2 -10 9 -7 13 3 5 0 12 -6 16 -8 5 -9 3 -4 -6z"/>
<path d="M8350 6960 c0 -5 5 -10 11 -10 5 0 7 5 4 10 -3 6 -8 10 -11 10 -2 0
-4 -4 -4 -10z"/>
<path d="M3236 6902 c-3 -5 1 -9 9 -9 8 0 12 4 9 9 -3 4 -7 8 -9 8 -2 0 -6 -4
-9 -8z"/>
<path d="M8340 6900 c0 -5 7 -7 15 -4 8 4 15 8 15 10 0 2 -7 4 -15 4 -8 0 -15
-4 -15 -10z"/>
<path d="M3276 6837 c3 -10 9 -15 12 -12 3 3 0 11 -7 18 -10 9 -11 8 -5 -6z"/>
<path d="M3250 6819 c0 -5 5 -7 10 -4 6 3 10 8 10 11 0 2 -4 4 -10 4 -5 0 -10
-5 -10 -11z"/>
<path d="M8340 6818 c0 -4 7 -8 15 -8 8 0 15 4 15 8 0 5 -7 9 -15 9 -8 0 -15
-4 -15 -9z"/>
<path d="M3260 6800 c-9 -6 -10 -10 -3 -10 6 0 15 5 18 10 8 12 4 12 -15 0z"/>
<path d="M8335 6759 c-4 -6 -5 -12 -2 -15 2 -3 7 2 10 11 7 17 1 20 -8 4z"/>
<path d="M3261 6734 c0 -11 3 -14 6 -6 3 7 2 16 -1 19 -3 4 -6 -2 -5 -13z"/>
<path d="M3300 6740 c0 -5 5 -10 11 -10 5 0 7 5 4 10 -3 6 -8 10 -11 10 -2 0
-4 -4 -4 -10z"/>
<path d="M8319 6723 c0 -5 -2 -16 -4 -26 -2 -11 -1 -16 3 -13 8 8 14 46 7 46
-3 0 -5 -3 -6 -7z"/>
<path d="M8305 6659 c-4 -6 -5 -12 -2 -15 2 -3 7 2 10 11 7 17 1 20 -8 4z"/>
<path d="M3316 6638 c3 -5 10 -6 15 -3 13 9 11 12 -6 12 -8 0 -12 -4 -9 -9z"/>
<path d="M3299 6621 c8 -5 10 -14 6 -22 -6 -11 -5 -11 5 -2 14 12 6 33 -13 33
-8 0 -7 -3 2 -9z"/>
<path d="M8288 6613 c6 -2 9 -10 6 -15 -4 -7 -2 -8 5 -4 13 9 5 26 -12 25 -9
0 -8 -2 1 -6z"/>
<path d="M3320 6575 c-11 -13 -10 -14 4 -9 9 3 16 10 16 15 0 13 -6 11 -20 -6z"/>
<path d="M8305 6579 c-4 -6 -5 -12 -2 -15 2 -3 7 2 10 11 7 17 1 20 -8 4z"/>
<path d="M3350 6535 c0 -8 4 -15 8 -15 5 0 9 7 9 15 0 8 -4 15 -9 15 -4 0 -8
-7 -8 -15z"/>
<path d="M8280 6542 c0 -5 7 -9 15 -9 8 0 12 4 9 9 -3 4 -9 8 -15 8 -5 0 -9
-4 -9 -8z"/>
<path d="M3366 6502 c-3 -5 1 -9 9 -9 8 0 15 4 15 9 0 4 -4 8 -9 8 -6 0 -12
-4 -15 -8z"/>
<path d="M8270 6500 c0 -5 7 -7 15 -4 8 4 15 8 15 10 0 2 -7 4 -15 4 -8 0 -15
-4 -15 -10z"/>
<path d="M3385 6458 c-11 -24 -12 -28 -2 -16 8 10 16 16 18 13 3 -2 5 5 5 15
0 27 -3 25 -21 -12z"/>
<path d="M8234 6465 c3 -23 12 -26 13 -5 1 11 -2 20 -7 20 -4 0 -7 -7 -6 -15z"/>
<path d="M3397 6433 c-10 -9 -9 -33 1 -33 4 0 8 9 8 20 0 23 0 22 -9 13z"/>
<path d="M8250 6426 c0 -2 7 -7 16 -10 8 -3 12 -2 9 4 -6 10 -25 14 -25 6z"/>
<path d="M8237 6409 c7 -7 15 -10 18 -7 3 3 -2 9 -12 12 -14 6 -15 5 -6 -5z"/>
<path d="M3375 6380 c3 -5 8 -10 11 -10 2 0 4 5 4 10 0 6 -5 10 -11 10 -5 0
-7 -4 -4 -10z"/>
<path d="M3410 6382 c0 -5 7 -9 15 -9 8 0 12 4 9 9 -3 4 -9 8 -15 8 -5 0 -9
-4 -9 -8z"/>
<path d="M3402 6340 c7 -10 14 -18 15 -16 6 6 -9 36 -18 36 -5 0 -4 -9 3 -20z"/>
<path d="M8230 6350 c-11 -7 -11 -10 -2 -10 8 0 10 -5 6 -12 -4 -7 -3 -9 1 -5
7 6 17 37 12 37 -1 0 -9 -5 -17 -10z"/>
<path d="M3433 6325 c0 -8 4 -15 9 -15 4 0 8 4 8 9 0 6 -4 12 -8 15 -5 3 -9
-1 -9 -9z"/>
<path d="M3397 6295 c-4 -8 -3 -16 1 -19 4 -3 9 4 9 15 2 23 -3 25 -10 4z"/>
<path d="M3450 6291 c0 -6 4 -13 10 -16 6 -3 7 1 4 9 -7 18 -14 21 -14 7z"/>
<path d="M8228 6283 c7 -3 16 -2 19 1 4 3 -2 6 -13 5 -11 0 -14 -3 -6 -6z"/>
<path d="M3433 6248 c-2 -18 0 -20 7 -8 12 18 13 30 2 30 -4 0 -9 -10 -9 -22z"/>
<path d="M8211 6254 c0 -11 3 -14 6 -6 3 7 2 16 -1 19 -3 4 -6 -2 -5 -13z"/>
<path d="M3443 6220 c-11 -16 -10 -18 2 -14 8 4 15 12 15 20 0 19 -3 18 -17
-6z"/>
<path d="M8157 6203 c-10 -9 -9 -23 1 -23 5 0 9 7 9 15 0 17 -1 18 -10 8z"/>
<path d="M3491 6184 c0 -11 3 -14 6 -6 3 7 2 16 -1 19 -3 4 -6 -2 -5 -13z"/>
<path d="M3435 6171 c-6 -11 13 -26 22 -17 4 3 1 6 -6 6 -7 0 -9 5 -6 10 3 6
4 10 1 10 -3 0 -7 -4 -11 -9z"/>
<path d="M8135 6161 c-3 -6 4 -15 15 -21 13 -7 20 -7 20 0 0 5 -7 10 -16 10
-8 0 -12 5 -9 10 3 6 4 10 1 10 -3 0 -7 -4 -11 -9z"/>
<path d="M3466 6145 c-11 -8 -15 -15 -9 -15 6 0 16 7 23 15 16 19 11 19 -14 0z"/>
<path d="M8113 6125 c0 -8 4 -12 9 -9 5 3 6 10 3 15 -9 13 -12 11 -12 -6z"/>
<path d="M3477 6106 c-4 -10 -3 -15 3 -11 6 3 10 1 10 -6 0 -7 3 -10 6 -6 3 3
2 13 -4 22 -8 16 -9 16 -15 1z"/>
<path d="M8120 6095 c-19 -22 -8 -25 13 -3 9 10 13 18 8 18 -5 0 -14 -7 -21
-15z"/>
<path d="M3473 6065 c0 -8 4 -12 9 -9 5 3 6 10 3 15 -9 13 -12 11 -12 -6z"/>
<path d="M8130 6059 c0 -5 5 -7 10 -4 6 3 10 8 10 11 0 2 -4 4 -10 4 -5 0 -10
-5 -10 -11z"/>
<path d="M8095 6041 c-3 -6 3 -14 13 -20 14 -7 19 -6 19 4 0 7 -7 11 -15 7
-10 -3 -13 -1 -8 6 4 7 5 12 2 12 -3 0 -7 -4 -11 -9z"/>
<path d="M3496 6004 c7 -37 16 -47 12 -12 -2 15 -7 30 -11 34 -3 3 -4 -6 -1
-22z"/>
<path d="M8073 6010 c-1 -11 2 -20 7 -20 4 0 7 7 6 15 -3 23 -12 26 -13 5z"/>
<path d="M3560 5989 c0 -5 -4 -7 -10 -4 -5 3 -10 2 -10 -3 0 -19 26 -20 27 -1
1 10 0 19 -3 19 -2 0 -4 -5 -4 -11z"/>
<path d="M8092 5981 c-11 -7 -10 -9 3 -14 9 -4 14 -3 10 2 -3 5 1 12 7 14 7 3
9 6 3 6 -5 0 -16 -3 -23 -8z"/>
<path d="M3516 5962 c-2 -4 2 -16 10 -27 8 -10 14 -14 14 -8 0 7 -5 15 -10 18
-6 4 -8 11 -5 16 4 5 4 9 1 9 -3 0 -7 -3 -10 -8z"/>
<path d="M3560 5940 c-8 -5 -10 -10 -5 -10 6 0 17 5 25 10 8 5 11 10 5 10 -5
0 -17 -5 -25 -10z"/>
<path d="M8067 5933 c3 -7 9 -13 15 -13 5 0 7 4 4 9 -4 5 0 11 6 14 7 3 3 4
-8 4 -14 -1 -20 -6 -17 -14z"/>
<path d="M8030 5911 c13 -9 12 -12 -5 -26 -19 -16 -19 -16 3 -5 25 12 25 31 1
38 -11 3 -11 2 1 -7z"/>
<path d="M3561 5893 c-1 -17 16 -25 25 -12 4 7 3 9 -4 5 -5 -3 -13 0 -15 6 -4
9 -6 10 -6 1z"/>
<path d="M3535 5880 c3 -5 8 -10 11 -10 2 0 4 5 4 10 0 6 -5 10 -11 10 -5 0
-7 -4 -4 -10z"/>
<path d="M3596 5873 c-6 -14 -5 -15 5 -6 7 7 10 15 7 18 -3 3 -9 -2 -12 -12z"/>
<path d="M3615 5859 c-3 -4 2 -6 10 -5 21 3 28 13 10 13 -9 0 -18 -4 -20 -8z"/>
<path d="M8025 5859 c-4 -6 -4 -13 -1 -16 3 -4 6 -1 6 6 0 7 5 9 12 5 7 -4 8
-3 4 4 -9 15 -13 15 -21 1z"/>
<path d="M3558 5843 c7 -3 16 -2 19 1 4 3 -2 6 -13 5 -11 0 -14 -3 -6 -6z"/>
<path d="M3636 5825 c23 -17 34 -19 34 -4 0 5 -4 8 -9 4 -5 -3 -12 -1 -16 5
-3 5 -11 10 -18 10 -6 0 -2 -7 9 -15z"/>
<path d="M8026 5825 c-11 -8 -15 -15 -9 -15 6 0 16 7 23 15 16 19 11 19 -14 0z"/>
<path d="M3570 5820 c0 -5 5 -10 10 -10 6 0 10 5 10 10 0 6 -4 10 -10 10 -5 0
-10 -4 -10 -10z"/>
<path d="M3630 5800 c14 -9 7 -14 -13 -11 -5 1 -6 -3 -2 -9 5 -8 11 -8 21 1
15 12 10 29 -9 29 -7 0 -6 -4 3 -10z"/>
<path d="M8020 5796 c0 -2 7 -7 16 -10 8 -3 12 -2 9 4 -6 10 -25 14 -25 6z"/>
<path d="M3590 5781 c0 -6 4 -13 10 -16 6 -3 7 1 4 9 -7 18 -14 21 -14 7z"/>
<path d="M3621 5752 c-1 -8 -6 -10 -13 -6 -10 5 -10 4 -1 -6 15 -16 28 -8 20
12 -4 11 -6 11 -6 0z"/>
<path d="M7993 5729 c-2 -23 3 -25 10 -4 4 8 3 16 -1 19 -4 3 -9 -4 -9 -15z"/>
<path d="M3635 5720 c-3 -5 -1 -10 4 -10 6 0 11 5 11 10 0 6 -2 10 -4 10 -3 0
-8 -4 -11 -10z"/>
<path d="M3656 5703 c-6 -14 -5 -15 5 -6 7 7 10 15 7 18 -3 3 -9 -2 -12 -12z"/>
<path d="M3675 5680 c3 -5 8 -10 11 -10 2 0 4 5 4 10 0 6 -5 10 -11 10 -5 0
-7 -4 -4 -10z"/>
<path d="M3720 5659 c0 -13 -4 -18 -12 -13 -7 4 -9 3 -5 -1 17 -19 34 -13 29
11 -5 29 -12 31 -12 3z"/>
<path d="M7935 5649 c-4 -6 -5 -12 -2 -15 2 -3 7 2 10 11 7 17 1 20 -8 4z"/>
<path d="M3785 5619 c-4 -6 -5 -12 -2 -15 2 -3 7 2 10 11 7 17 1 20 -8 4z"/>
<path d="M7897 5615 c-4 -8 -3 -16 1 -19 4 -3 9 4 9 15 2 23 -3 25 -10 4z"/>
<path d="M3810 5591 c0 -6 4 -13 10 -16 6 -3 7 1 4 9 -7 18 -14 21 -14 7z"/>
<path d="M3845 5579 c-4 -6 -5 -12 -2 -15 2 -3 7 2 10 11 7 17 1 20 -8 4z"/>
<path d="M3893 5515 c0 -8 4 -12 9 -9 5 3 6 10 3 15 -9 13 -12 11 -12 -6z"/>
<path d="M3910 5486 c0 -2 7 -7 16 -10 8 -3 12 -2 9 4 -6 10 -25 14 -25 6z"/>
<path d="M3917 5439 c7 -7 15 -10 18 -7 3 3 -2 9 -12 12 -14 6 -15 5 -6 -5z"/>
<path d="M3915 5391 c-3 -5 -2 -12 3 -15 5 -3 9 1 9 9 0 17 -3 19 -12 6z"/>
<path d="M3944 5338 c-19 -22 -19 -22 0 -8 18 14 19 13 13 -3 -4 -10 -3 -16 2
-12 8 4 12 45 5 45 0 0 -9 -10 -20 -22z"/>
<path d="M3950 5279 c0 -5 5 -7 10 -4 6 3 10 8 10 11 0 2 -4 4 -10 4 -5 0 -10
-5 -10 -11z"/>
<path d="M3950 5246 c0 -2 7 -7 16 -10 8 -3 12 -2 9 4 -6 10 -25 14 -25 6z"/>
<path d="M4035 4860 c3 -5 11 -10 16 -10 6 0 7 5 4 10 -3 6 -11 10 -16 10 -6
0 -7 -4 -4 -10z"/>
<path d="M4058 4783 c5 -21 7 -23 10 -9 2 10 0 22 -6 28 -6 6 -7 0 -4 -19z"/>
<path d="M4076 4753 c-4 -9 -3 -20 1 -24 4 -4 9 3 9 17 2 28 -1 31 -10 7z"/>
<path d="M4114 4629 c-3 -6 -1 -16 6 -22 10 -9 11 -9 5 2 -4 8 -2 17 6 22 9 6
10 9 2 9 -6 0 -15 -5 -19 -11z"/>
<path d="M4130 4579 c0 -5 5 -7 10 -4 6 3 10 8 10 11 0 2 -4 4 -10 4 -5 0 -10
-5 -10 -11z"/>
<path d="M4160 4511 c5 -11 15 -23 21 -27 6 -3 3 5 -6 20 -20 30 -30 35 -15 7z"/>
<path d="M4195 4440 c-3 -5 -1 -10 4 -10 6 0 11 5 11 10 0 6 -2 10 -4 10 -3 0
-8 -4 -11 -10z"/>
<path d="M4227 4413 c5 -12 3 -14 -7 -8 -9 5 -11 4 -6 -4 6 -9 11 -9 22 0 17
14 17 16 0 22 -11 4 -13 1 -9 -10z"/>
<path d="M4250 4345 c0 -8 29 -12 39 -5 9 5 4 8 -13 8 -14 0 -26 -2 -26 -3z"/>
<path d="M4296 4317 c3 -10 9 -15 12 -12 3 3 0 11 -7 18 -10 9 -11 8 -5 -6z"/>
<path d="M4312 4287 c-8 -10 -6 -13 7 -13 11 0 17 6 14 13 -3 7 -6 13 -8 13
-1 0 -7 -6 -13 -13z"/>
<path d="M4397 3369 c7 -7 15 -10 18 -7 3 3 -2 9 -12 12 -14 6 -15 5 -6 -5z"/>
<path d="M4388 3318 c5 -5 16 -8 23 -6 8 3 3 7 -10 11 -17 4 -21 3 -13 -5z"/>
<path d="M4386 3262 c-3 -5 1 -9 9 -9 8 0 12 4 9 9 -3 4 -7 8 -9 8 -2 0 -6 -4
-9 -8z"/>
<path d="M4375 3230 c-3 -6 1 -13 9 -16 9 -3 13 -11 9 -17 -4 -6 -1 -7 7 -2
10 6 10 11 -3 20 -9 7 -14 15 -10 18 3 4 4 7 0 7 -3 0 -9 -5 -12 -10z"/>
<path d="M4377 3131 c-4 -17 -3 -21 5 -13 5 5 8 16 6 23 -3 8 -7 3 -11 -10z"/>
<path d="M4386 3057 c3 -10 9 -15 12 -12 3 3 0 11 -7 18 -10 9 -11 8 -5 -6z"/>
<path d="M4356 3013 c-6 -14 -5 -15 5 -6 7 7 10 15 7 18 -3 3 -9 -2 -12 -12z"/>
<path d="M4370 2940 c-9 -6 -10 -10 -3 -10 6 0 15 5 18 10 8 12 4 12 -15 0z"/>
<path d="M4350 2916 c0 -2 7 -9 15 -16 9 -7 15 -8 15 -2 0 5 -7 12 -15 16 -8
3 -15 4 -15 2z"/>
<path d="M4340 2821 c0 -5 7 -12 16 -15 14 -5 15 -4 4 9 -14 17 -20 19 -20 6z"/>
<path d="M4335 2689 c-4 -6 -5 -12 -2 -15 2 -3 7 2 10 11 7 17 1 20 -8 4z"/>
<path d="M4330 2640 c0 -5 5 -10 11 -10 5 0 7 5 4 10 -3 6 -8 10 -11 10 -2 0
-4 -4 -4 -10z"/>
<path d="M4316 2547 c3 -10 9 -15 12 -12 3 3 0 11 -7 18 -10 9 -11 8 -5 -6z"/>
<path d="M4295 2511 c-6 -11 13 -26 22 -17 4 3 1 6 -6 6 -7 0 -9 5 -6 10 3 6
4 10 1 10 -3 0 -7 -4 -11 -9z"/>
<path d="M4280 2451 c0 -6 4 -13 10 -16 6 -3 7 1 4 9 -7 18 -14 21 -14 7z"/>
<path d="M4270 2390 c-9 -6 -10 -10 -3 -10 6 0 15 5 18 10 8 12 4 12 -15 0z"/>
<path d="M4233 2353 c0 -8 6 -9 19 -2 10 5 18 11 18 12 0 2 -8 3 -18 3 -10 0
-19 -6 -19 -13z"/>
<path d="M3955 2061 c-3 -5 -2 -12 3 -15 5 -3 9 1 9 9 0 17 -3 19 -12 6z"/>
<path d="M3190 1650 c8 -5 20 -10 25 -10 6 0 3 5 -5 10 -8 5 -19 10 -25 10 -5
0 -3 -5 5 -10z"/>
<path d="M3070 1586 c0 -2 7 -7 16 -10 8 -3 12 -2 9 4 -6 10 -25 14 -25 6z"/>
<path d="M3034 1551 c4 -5 1 -12 -4 -14 -6 -3 -5 -4 2 -3 15 3 23 26 8 26 -6
0 -9 -4 -6 -9z"/>
<path d="M2993 1525 c0 -8 4 -12 9 -9 5 3 6 10 3 15 -9 13 -12 11 -12 -6z"/>
<path d="M2944 1498 c-4 -5 -3 -12 0 -15 3 -4 6 -1 6 6 0 7 4 10 9 6 5 -3 12
-2 15 3 3 5 -2 9 -10 9 -8 0 -17 -4 -20 -9z"/>
<path d="M2900 1466 c0 -2 8 -10 18 -17 15 -13 16 -12 3 4 -13 16 -21 21 -21
13z"/>
<path d="M2880 1435 c-7 -9 -8 -15 -2 -15 5 0 12 7 16 15 3 8 4 15 2 15 -2 0
-9 -7 -16 -15z"/>
<path d="M2835 1430 c-3 -5 -3 -10 2 -10 4 0 1 -5 -7 -11 -10 -7 -11 -9 -2 -7
8 2 13 7 12 12 -1 5 4 13 12 17 9 6 9 9 1 9 -6 0 -15 -4 -18 -10z"/>
<path d="M2795 1399 c-4 -6 -5 -12 -2 -15 2 -3 7 2 10 11 7 17 1 20 -8 4z"/>
<path d="M2715 1379 c-4 -6 -5 -12 -2 -15 2 -3 7 2 10 11 7 17 1 20 -8 4z"/>
<path d="M2650 1360 c-9 -6 -10 -10 -3 -10 6 0 15 5 18 10 8 12 4 12 -15 0z"/>
<path d="M2577 1336 c-4 -11 -1 -13 10 -9 12 5 14 3 8 -7 -5 -9 -4 -11 4 -6 9
6 9 11 0 22 -14 17 -16 17 -22 0z"/>
<path d="M2428 1233 c7 -3 16 -2 19 1 4 3 -2 6 -13 5 -11 0 -14 -3 -6 -6z"/>
<path d="M2350 1181 c0 -6 4 -12 8 -15 5 -3 9 1 9 9 0 8 -4 15 -9 15 -4 0 -8
-4 -8 -9z"/>
<path d="M2390 1170 c-9 -6 -10 -10 -3 -10 6 0 15 5 18 10 8 12 4 12 -15 0z"/>
<path d="M2290 1145 c0 -7 30 -13 34 -7 3 4 -4 9 -15 9 -10 1 -19 0 -19 -2z"/>
<path d="M2270 1130 c8 -5 20 -10 25 -10 6 0 3 5 -5 10 -8 5 -19 10 -25 10 -5
0 -3 -5 5 -10z"/>
<path d="M2233 1110 c5 -29 13 -33 13 -5 0 14 -4 25 -8 25 -4 0 -7 -9 -5 -20z"/>
<path d="M2170 1098 c0 -4 4 -8 9 -8 6 0 12 4 15 8 3 5 -1 9 -9 9 -8 0 -15 -4
-15 -9z"/>
<path d="M2270 1100 c-9 -6 -10 -10 -3 -10 6 0 15 5 18 10 8 12 4 12 -15 0z"/>
<path d="M2134 1082 c4 -3 14 -7 22 -8 9 -1 13 0 10 4 -4 3 -14 7 -22 8 -9 1
-13 0 -10 -4z"/>
<path d="M2195 1080 c-17 -8 -17 -9 7 -7 15 1 24 5 22 9 -3 4 -6 8 -7 7 -1 0
-11 -4 -22 -9z"/>
<path d="M2117 1059 c4 -13 8 -18 11 -10 2 7 -1 18 -6 23 -8 8 -9 4 -5 -13z"/>
<path d="M2093 1056 c3 -8 -1 -17 -9 -20 -22 -9 -26 -7 -18 6 5 7 3 8 -5 3
-22 -13 4 -28 28 -16 17 10 21 41 4 41 -3 0 -3 -6 0 -14z"/>
<path d="M2035 1049 c-4 -6 -5 -12 -2 -15 2 -3 7 2 10 11 7 17 1 20 -8 4z"/>
<path d="M1950 1011 c0 -7 -5 -9 -12 -5 -7 5 -8 3 -3 -5 5 -9 10 -10 18 -2 6
6 8 14 4 18 -4 3 -7 1 -7 -6z"/>
<path d="M1990 999 c0 -5 5 -7 10 -4 6 3 10 8 10 11 0 2 -4 4 -10 4 -5 0 -10
-5 -10 -11z"/>
<path d="M1855 980 c-3 -5 -1 -10 4 -10 6 0 11 5 11 10 0 6 -2 10 -4 10 -3 0
-8 -4 -11 -10z"/>
<path d="M1887 979 c7 -7 15 -10 18 -7 3 3 -2 9 -12 12 -14 6 -15 5 -6 -5z"/>
<path d="M1910 960 c-9 -6 -10 -10 -3 -10 6 0 15 5 18 10 8 12 4 12 -15 0z"/>
<path d="M1828 953 c6 -2 18 -2 25 0 6 3 1 5 -13 5 -14 0 -19 -2 -12 -5z"/>
<path d="M1750 941 c0 -10 19 -25 25 -20 1 2 -3 10 -11 17 -8 7 -14 8 -14 3z"/>
<path d="M1798 923 c7 -3 16 -2 19 1 4 3 -2 6 -13 5 -11 0 -14 -3 -6 -6z"/>
<path d="M1675 911 c-6 -11 13 -26 22 -17 4 3 1 6 -6 6 -7 0 -9 5 -6 10 3 6 4
10 1 10 -3 0 -7 -4 -11 -9z"/>
<path d="M1590 868 c-12 -22 -12 -22 6 -6 10 10 15 20 12 24 -4 3 -12 -5 -18
-18z"/>
<path d="M1456 813 c-6 -14 -5 -15 5 -6 7 7 10 15 7 18 -3 3 -9 -2 -12 -12z"/>
<path d="M1496 821 c-3 -4 6 -6 19 -3 14 2 25 6 25 8 0 8 -39 4 -44 -5z"/>
<path d="M1299 728 c-4 -15 -6 -50 -3 -40 3 6 10 10 15 6 5 -3 9 0 9 5 0 6 -5
11 -11 11 -5 0 -7 5 -4 10 3 6 4 10 1 10 -3 0 -6 -1 -7 -2z"/>
<path d="M1228 673 c6 -2 10 -8 8 -12 -3 -4 1 -8 9 -8 8 0 15 4 15 8 0 7 -26
20 -38 18 -4 0 -1 -3 6 -6z"/>
<path d="M1201 614 c0 -11 3 -14 6 -6 3 7 2 16 -1 19 -3 4 -6 -2 -5 -13z"/>
<path d="M1155 601 c3 -6 -3 -14 -12 -20 -10 -6 -13 -11 -7 -11 12 0 34 20 34
32 0 4 -5 8 -11 8 -5 0 -8 -4 -4 -9z"/>
<path d="M1107 559 c7 -7 15 -10 18 -7 3 3 -2 9 -12 12 -14 6 -15 5 -6 -5z"/>
<path d="M1148 553 c6 -2 9 -10 6 -15 -4 -7 -2 -8 5 -4 13 9 5 26 -12 25 -9 0
-8 -2 1 -6z"/>
<path d="M1079 548 c-4 -12 -5 -57 0 -53 6 6 10 55 4 55 -1 0 -3 -1 -4 -2z"/>
<path d="M1036 465 c10 -8 23 -15 28 -15 6 0 1 7 -10 15 -10 8 -23 15 -28 15
-6 0 -1 -7 10 -15z"/>
<path d="M990 429 c0 -5 5 -7 10 -4 6 3 10 8 10 11 0 2 -4 4 -10 4 -5 0 -10
-5 -10 -11z"/>
<path d="M936 402 c-3 -5 1 -9 9 -9 8 0 12 4 9 9 -3 4 -7 8 -9 8 -2 0 -6 -4
-9 -8z"/>
<path d="M940 376 c0 -2 7 -6 15 -10 8 -3 15 -1 15 4 0 6 -7 10 -15 10 -8 0
-15 -2 -15 -4z"/>
<path d="M913 350 c1 -21 10 -18 13 5 1 8 -2 15 -6 15 -5 0 -8 -9 -7 -20z"/>
<path d="M877 335 c-8 -8 -18 -11 -22 -7 -5 4 -5 2 -1 -5 8 -15 32 -7 40 13 7
18 1 18 -17 -1z"/>
<path d="M840 300 c8 -5 20 -10 25 -10 6 0 3 5 -5 10 -8 5 -19 10 -25 10 -5 0
-3 -5 5 -10z"/>
<path d="M773 265 c-3 -9 -3 -18 -1 -21 3 -3 8 4 11 16 6 23 -1 27 -10 5z"/>
<path d="M739 238 c-6 -22 -5 -39 3 -45 6 -3 8 -1 4 5 -3 5 0 13 6 15 10 4 10
6 0 6 -7 1 -10 6 -7 11 3 6 4 10 1 10 -3 0 -6 -1 -7 -2z"/>
<path d="M701 184 c0 -11 3 -14 6 -6 3 7 2 16 -1 19 -3 4 -6 -2 -5 -13z"/>
<path d="M655 149 c-4 -6 -5 -12 -2 -15 2 -3 7 2 10 11 7 17 1 20 -8 4z"/>
<path d="M670 123 c0 -6 8 -17 18 -24 16 -13 16 -13 2 6 -8 11 -16 22 -17 24
-2 2 -3 0 -3 -6z"/>
<path d="M625 99 c-5 -8 -5 -11 0 -7 4 4 13 0 20 -9 10 -13 13 -14 20 -2 5 8
5 11 0 7 -4 -4 -13 0 -20 9 -10 13 -13 14 -20 2z"/>
<path d="M642 41 c-10 -6 -10 -10 3 -21 13 -11 14 -10 9 5 -6 14 -4 16 6 10 9
-5 11 -4 6 3 -8 14 -7 14 -24 3z"/>
</g>
</svg>
